<svg id="Layer_1" data-name="Layer 1" xmlns="http://www.w3.org/2000/svg" viewBox="0 0 100 100"><defs><style>.cls-1{fill:#d0cac3;}.cls-2{fill:#04070e;}</style></defs><circle class="cls-1" cx="50" cy="50" r="50"/><path class="cls-2" d="M23,52.43a59.66,59.66,0,0,1,6.19-27.07Q36.87,10,50.2,10T70.81,23.06Q77,33.85,77,48.12a57.48,57.48,0,0,1-6.19,26.8Q63.27,90,49.8,90,37,90,29.46,77.07A47.84,47.84,0,0,1,23,52.43ZM34.31,48q0,19.4,5.79,30.17,4,7.55,10.37,7.54,15.22,0,15.22-31.51a97.26,97.26,0,0,0-2.42-23.44Q59.08,15,49.12,15q-14.8,0-14.81,30.45Z"/></svg>