<svg id="Layer_1" data-name="Layer 1" xmlns="http://www.w3.org/2000/svg" viewBox="0 0 100 100"><defs><style>.cls-1{fill:#d0cac3;}.cls-2{fill:#04070e;}</style></defs><path class="cls-1" d="M100,50A50,50,0,1,1,50,0,50,50,0,0,1,100,50Z"/><path class="cls-2" d="M35.31,18.63V69.07q0,9,7.69,9h1.3v3.42H17.44V78.07h1.72q7.4,0,7.4-9V36q0-9.12-6.46-9.12H17.44V23.45h1a22.86,22.86,0,0,0,14.19-4.82ZM45.07,52A47.69,47.69,0,0,1,50,30.29Q56.22,18,67,18q10.4,0,16.47,10.52a39.22,39.22,0,0,1,5,19.89,47,47,0,0,1-5,21.55Q77.25,82,66.61,82,56.35,82,50.26,71.61A37.67,37.67,0,0,1,45.07,52Zm9.12-3.67a69.38,69.38,0,0,0,2.15,18q3.3,12.3,10.78,12.3,12.16,0,12.16-25.35,0-31.3-13.18-31.3-11.91,0-11.91,24.33Z"/></svg>