<svg id="Layer_1" data-name="Layer 1" xmlns="http://www.w3.org/2000/svg" viewBox="0 0 188 100"><defs><style>.cls-1{fill:#d0cac3;}.cls-2{fill:#04070e;}</style></defs><path class="cls-1" d="M138,0H50a50,50,0,0,0,0,100h88A50,50,0,0,0,138,0Z"/><path class="cls-2" d="M43.58,13V72.3q0,10.65,9,10.64h1.55V87H22.54V82.94h2q8.67,0,8.67-10.64V33.4q0-10.77-7.48-10.77H22.54V18.7h1.15A26.9,26.9,0,0,0,40.41,13Z"/><path class="cls-2" d="M63.12,52.25a55.22,55.22,0,0,1,5.73-25Q76,13,88.29,13t19.06,12.08q5.73,10,5.73,23.17a53.18,53.18,0,0,1-5.73,24.8q-7,14-19.44,14Q76.07,87,69.1,75A44.35,44.35,0,0,1,63.12,52.25Zm10.47-4.12Q73.59,66.07,79,76q3.73,7,9.59,7,14.07,0,14.08-29.16a89.78,89.78,0,0,0-2.24-21.67Q96.51,17.61,87.29,17.61q-13.71,0-13.7,28.16Z"/><path class="cls-2" d="M124.46,52.25a55.22,55.22,0,0,1,5.73-25Q137.28,13,149.62,13t19.06,12.08q5.73,10,5.73,23.17a53.18,53.18,0,0,1-5.73,24.8q-7,14-19.43,14-11.83,0-18.81-12A44.25,44.25,0,0,1,124.46,52.25Zm10.46-4.12q0,17.94,5.36,27.91,3.74,7,9.59,7Q163.94,83,164,53.86a89.78,89.78,0,0,0-2.24-21.67q-3.87-14.58-13.09-14.58-13.69,0-13.7,28.16Z"/></svg>