<svg id="Layer_1" data-name="Layer 1" xmlns="http://www.w3.org/2000/svg" viewBox="0 0 508 100"><defs><style>.cls-1{fill:#d0cac3;}.cls-2{fill:#04070e;}</style></defs><path class="cls-1" d="M458,0H50a50,50,0,0,0,0,100H458A50,50,0,0,0,458,0Z"/><path class="cls-2" d="M84.14,85.53V82.91q10.33-1.12,10.33-7.56c0-2.55-1-3.89-2.92-4l-1-.07q-4.2-.3-4.2-4.12a4.43,4.43,0,0,1,1.32-3.4,4.83,4.83,0,0,1,3.48-1.24c2.44,0,4.36,1.23,5.76,3.67a13.66,13.66,0,0,1,1.8,7q0,6.21-4.34,9.43Q90.57,85.39,84.14,85.53Z"/><path class="cls-2" d="M286.62,85.53V82.91q10.32-1.12,10.33-7.56c0-2.55-1-3.89-2.92-4l-1-.07q-4.19-.3-4.19-4.12a4.46,4.46,0,0,1,1.31-3.4,4.85,4.85,0,0,1,3.48-1.24c2.45,0,4.37,1.23,5.77,3.67a13.65,13.65,0,0,1,1.79,7q0,6.21-4.34,9.43Q293.06,85.39,286.62,85.53Z"/><path class="cls-2" d="M430.53,50.37A57.81,57.81,0,0,1,436.61,24q7.53-15,20.62-15t20.23,12.74q6.07,10.5,6.08,24.42a55.83,55.83,0,0,1-6.08,26.14Q470.05,87,456.83,87q-12.56,0-20-12.6A46.45,46.45,0,0,1,430.53,50.37ZM441.63,46q0,18.91,5.69,29.42,4,7.35,10.18,7.35,14.94,0,14.94-30.73a94.23,94.23,0,0,0-2.38-22.85Q466,13.86,456.17,13.86q-14.54,0-14.54,29.68Z"/><path class="cls-2" d="M369.53,50.37A57.81,57.81,0,0,1,375.61,24q7.53-15,20.62-15t20.23,12.74q6.07,10.5,6.08,24.42a55.83,55.83,0,0,1-6.08,26.14Q409,87,395.83,87q-12.56,0-20-12.6A46.45,46.45,0,0,1,369.53,50.37ZM380.63,46q0,18.91,5.69,29.42,4,7.35,10.17,7.35,15,0,14.95-30.73a94.23,94.23,0,0,0-2.38-22.85Q405,13.86,395.17,13.86q-14.55,0-14.54,29.68Z"/><path class="cls-2" d="M308.21,50.37A57.94,57.94,0,0,1,314.29,24q7.53-15,20.63-15,12.94,0,20.22,12.74,6.08,10.5,6.08,24.42a55.83,55.83,0,0,1-6.08,26.14Q347.75,87,334.52,87q-12.56,0-20-12.6A46.46,46.46,0,0,1,308.21,50.37ZM319.31,46q0,18.91,5.7,29.42,4,7.35,10.17,7.35,14.94,0,14.94-30.73a93.73,93.73,0,0,0-2.38-22.85q-4.1-15.36-13.88-15.36-14.55,0-14.55,29.68Z"/><path class="cls-2" d="M226.86,50.37A57.94,57.94,0,0,1,232.94,24q7.53-15,20.63-15,12.94,0,20.22,12.74,6.07,10.5,6.08,24.42a55.83,55.83,0,0,1-6.08,26.14Q266.38,87,253.17,87q-12.57,0-20-12.6A46.46,46.46,0,0,1,226.86,50.37ZM238,46q0,18.91,5.69,29.42,4,7.35,10.18,7.35,14.94,0,14.94-30.73a93.73,93.73,0,0,0-2.38-22.85q-4.09-15.36-13.88-15.36Q238,13.86,238,43.54Z"/><path class="cls-2" d="M165.86,50.37A57.94,57.94,0,0,1,171.94,24q7.53-15,20.63-15,12.94,0,20.22,12.74,6.08,10.5,6.08,24.42a55.83,55.83,0,0,1-6.08,26.14Q205.38,87,192.17,87q-12.57,0-20-12.6A46.46,46.46,0,0,1,165.86,50.37ZM177,46q0,18.91,5.69,29.42,4,7.35,10.18,7.35,14.94,0,14.94-30.73a93.73,93.73,0,0,0-2.38-22.85q-4.09-15.36-13.88-15.36Q177,13.86,177,43.54Z"/><path class="cls-2" d="M104.55,50.37A57.81,57.81,0,0,1,110.63,24q7.53-15,20.62-15t20.23,12.74q6.08,10.5,6.08,24.42a55.83,55.83,0,0,1-6.08,26.14Q144.07,87,130.85,87q-12.55,0-20-12.6A46.45,46.45,0,0,1,104.55,50.37ZM115.65,46q0,18.91,5.69,29.42,4,7.35,10.17,7.35,14.94,0,14.94-30.73a94.27,94.27,0,0,0-2.37-22.85Q140,13.86,130.19,13.86q-14.55,0-14.54,29.68Z"/><path class="cls-2" d="M61.79,9V71.51q0,11.22,9.69,11.21h1.68V87H39.05V82.72h2.14q9.38,0,9.37-11.21v-41q0-11.34-8.08-11.35H39.05V15h1.24A29.56,29.56,0,0,0,58.37,9Z"/></svg>