<svg id="Layer_1" data-name="Layer 1" xmlns="http://www.w3.org/2000/svg" viewBox="0 0 100 100"><defs><style>.cls-1{fill:#d0cac3;}.cls-2{fill:#04070e;}</style></defs><path class="cls-1" d="M100,50A50,50,0,1,1,50,0,50,50,0,0,1,100,50Z"/><path class="cls-2" d="M35.63,19.21V68.39q0,8.82,7.28,8.82h1.28v3.45H18V77.21h1.53q7.41,0,7.41-8.82V36.07c0-5.95-2-8.94-6.13-8.94H18.13V23.81h1a22.36,22.36,0,0,0,13.79-4.6Zm51,46.37L82.12,80.79H44.7V77.46Q47.39,74.4,56.58,65.2q5.49-5.49,11-11.75c1.78-2.05,3.19-3.75,4.21-5.11A17.55,17.55,0,0,0,75,38.63,13.42,13.42,0,0,0,72,30.07a9.46,9.46,0,0,0-7.8-3.7q-10.09,0-15.84,13.8l-3.32-1.28Q52,19.72,66.54,19.72A17.14,17.14,0,0,1,78.8,24.58a16,16,0,0,1,5.11,12.13q0,9.33-10.6,18.15L66,60.73A106.36,106.36,0,0,0,54.4,71.84c-.25.26-.68.73-1.27,1.41H72.67c3,0,5.2-.56,6.65-1.66s2.76-3.11,4-6Z"/></svg>