<svg id="Layer_1" data-name="Layer 1" xmlns="http://www.w3.org/2000/svg" viewBox="0 0 100 100"><defs><style>.cls-1{fill:#d0cac3;}.cls-2{fill:#04070e;}</style></defs><path class="cls-1" d="M100,50A50,50,0,1,1,50,0,50,50,0,0,1,100,50Z"/><path class="cls-2" d="M38,19.79V68.33q0,8.57,7.28,8.56H46.4v3.32H20.6V76.89h1.66q7.41,0,7.41-8.56V36.52q0-8.81-6.26-8.81H20.85V24.39h1a21.65,21.65,0,0,0,13.53-4.6ZM59.68,52l-1.53-2.81,1.15-.64Q65,45,70,41.31c3.27-2.42,4.92-5.17,4.92-8.24a6.74,6.74,0,0,0-2.43-5.3,8,8,0,0,0-5.36-2.11q-7.42,0-15.59,9L49,32.69q8.41-12.76,20.69-12.78a15.06,15.06,0,0,1,9.07,2.69,9.23,9.23,0,0,1,4.34,8,10.56,10.56,0,0,1-3.06,7,53.2,53.2,0,0,1-6.14,5.24l-1.15,1a12.57,12.57,0,0,1,1.92-.13,11.46,11.46,0,0,1,9.2,4.28,14.84,14.84,0,0,1,3.57,9.77q0,9.72-8.17,16.1A26.23,26.23,0,0,1,62,80.08q-9.08,0-14.18-3.83l1.78-2.55a26.31,26.31,0,0,0,11,2.81,19.29,19.29,0,0,0,12.77-4.73A14.74,14.74,0,0,0,79,60,12.07,12.07,0,0,0,76.17,52a9.27,9.27,0,0,0-7.42-3.32Q64.67,48.66,59.68,52Z"/></svg>