<svg id="Layer_1" data-name="Layer 1" xmlns="http://www.w3.org/2000/svg" viewBox="0 0 100 100"><defs><style>.cls-1{fill:#d0cac3;}.cls-2{fill:#04070e;}</style></defs><path class="cls-1" d="M100,50A50,50,0,1,1,50,0,50,50,0,0,1,100,50Z"/><path class="cls-2" d="M36.31,19.47V68.52q0,8.69,7.27,8.69h1.16v3.32H18.68V77.21h1.66q7.41,0,7.41-8.69V36.33q0-8.82-6.26-8.81H18.93V24.2h1a21.84,21.84,0,0,0,13.66-4.73ZM79.36,63.16v5.11c0,5.7,2,8.56,6,8.56H87v3.31H62.62V76.83h1.92q6,0,6-8.43V63.16H46V58.05L71.94,20.23h7.42V58.81H80c2.47,0,4.3-2,5.49-5.87h3.07L87,63.16Zm-6.78-5.11V25.86L50.87,58.05Z"/></svg>