<svg id="Layer_1" data-name="Layer 1" xmlns="http://www.w3.org/2000/svg" viewBox="0 0 100 100"><defs><style>.cls-1{fill:#d0cac3;}.cls-2{fill:#04070e;}</style></defs><path class="cls-1" d="M100,50A50,50,0,1,1,50,0,50,50,0,0,1,100,50Z"/><path class="cls-2" d="M34.67,18.13V69q0,9.06,7.54,9.07h1.27v3.44H16.41V78h1.78q7.66,0,7.67-9.07V35.62q0-9.18-6.52-9.19H16.66V23h1A23.11,23.11,0,0,0,32,18.13ZM52.55,19.4H75.68c3,0,4.77-.33,5.36-1h3.33l-1.92,8.69H54.22L51.54,39.59a29.05,29.05,0,0,1,10.73-2.43,21.48,21.48,0,0,1,15.52,6.13,20.5,20.5,0,0,1,6.32,15.33,21,21,0,0,1-8.17,17.25,29.19,29.19,0,0,1-18.53,6A41.67,41.67,0,0,1,44.89,80l1.28-3.19a34.5,34.5,0,0,0,9.07,1.4A20.3,20.3,0,0,0,69.1,72.93,16.67,16.67,0,0,0,75,59.9a14.92,14.92,0,0,0-4.41-11.11,15.09,15.09,0,0,0-11-4.35A18.09,18.09,0,0,0,48,48.79l-2.17-.39Z"/></svg>