<svg id="Layer_1" data-name="Layer 1" xmlns="http://www.w3.org/2000/svg" viewBox="0 0 100 100"><defs><style>.cls-1{fill:#d0cac3;}.cls-2{fill:#04070e;}</style></defs><path class="cls-1" d="M100,50A50,50,0,1,1,50,0,50,50,0,0,1,100,50Z"/><path class="cls-2" d="M34.31,18.32V69.16q0,9.07,7.54,9.07h1.27v3.45H16V78.23h1.79q7.67,0,7.67-9.07V35.82q0-9.19-6.52-9.2H16.3V23.17h1a23.11,23.11,0,0,0,14.31-4.85ZM54.37,45.78q7-6.63,14.18-6.64a14.93,14.93,0,0,1,12.39,6.13,21.74,21.74,0,0,1,4.34,13.67,24,24,0,0,1-5.11,15.2q-5.62,7.29-14,7.28-10,0-16.1-8.68A30.88,30.88,0,0,1,44.66,54.6,37,37,0,0,1,50.79,34,33.58,33.58,0,0,1,67.27,20.62a34.35,34.35,0,0,1,12.26-2.17v3.32q-13.78.64-20.56,11A32.48,32.48,0,0,0,54.37,45.78ZM53.73,52c-.09,1.28-.13,2.56-.13,3.84a35.77,35.77,0,0,0,2.56,13.67q3.31,8.16,9.7,8.17,5.49,0,8.3-5.62a24.7,24.7,0,0,0,2-10.61,29.75,29.75,0,0,0-1.92-11.23q-2.81-6.39-8.56-6.39Q58.71,43.87,53.73,52Z"/></svg>