<svg id="Layer_1" data-name="Layer 1" xmlns="http://www.w3.org/2000/svg" viewBox="0 0 100 100"><defs><style>.cls-1{fill:#d0cac3;}.cls-2{fill:#04070e;}</style></defs><path class="cls-1" d="M100,50A50,50,0,1,1,50,0,50,50,0,0,1,100,50Z"/><path class="cls-2" d="M36,19.21V68.65q0,8.82,7.29,8.81h1.28v3.33H18.22V77.46h1.66q7.53,0,7.54-8.81V36.21c0-6-2.13-8.94-6.39-8.94H18.47V23.94h1a21.94,21.94,0,0,0,13.79-4.73ZM58.58,49.62l-1.27-1q-6-4.1-7.92-6.52a12.38,12.38,0,0,1-2.3-7.41,13.76,13.76,0,0,1,6-11.5A20.13,20.13,0,0,1,65.87,19a21.55,21.55,0,0,1,12.26,3.58A12.61,12.61,0,0,1,84,33.39q0,8.19-11.25,13.16,12.92,6.27,12.91,17.5a15.18,15.18,0,0,1-6.26,12.78Q74,81,65.74,81a22.91,22.91,0,0,1-13.54-4q-6.51-4.47-6.52-11.88t7-12.26A47.56,47.56,0,0,1,58.58,49.62ZM62.16,51q-9.31,4.35-9.32,13.54a12.55,12.55,0,0,0,3.83,9.52,13.35,13.35,0,0,0,9.58,3.64,14.38,14.38,0,0,0,9.07-2.87,9.54,9.54,0,0,0,3.7-8q0-7.78-10-12.51Zm7-6.13q8.3-3.7,8.3-11a10.17,10.17,0,0,0-3.51-8,12.63,12.63,0,0,0-8.62-3.07,12.44,12.44,0,0,0-7.54,2.43,7.77,7.77,0,0,0-3.32,6.64A9.36,9.36,0,0,0,59.22,40c.68.42,3.5,1.78,8.43,4.09Z"/></svg>