<svg id="Layer_1" data-name="Layer 1" xmlns="http://www.w3.org/2000/svg" viewBox="0 0 100 100"><defs><style>.cls-1{fill:#d0cac3;}.cls-2{fill:#04070e;}</style></defs><path class="cls-1" d="M100,50A50,50,0,1,1,50,0,50,50,0,0,1,100,50Z"/><path class="cls-2" d="M77.44,70.1,71.55,90h-49V85.75q3.57-4,15.65-16.06,7.27-7.27,14.41-15.37a61.78,61.78,0,0,0,5.48-6.86,22,22,0,0,0,4.26-12.62,17.08,17.08,0,0,0-3.91-11.12,12.42,12.42,0,0,0-10.09-4.8q-13.31,0-20.85,18l-4.4-1.65Q32,10,51.23,10a22.32,22.32,0,0,1,16.13,6.45A21.26,21.26,0,0,1,74,32.37Q74,44.45,60.16,56l-9.61,8A147.09,147.09,0,0,0,35.32,78.34q-.42.41-1.65,1.92H59.19q5.91,0,8.92-2.34,2.61-2.06,5.08-7.82Z"/></svg>