<svg id="Layer_1" data-name="Layer 1" xmlns="http://www.w3.org/2000/svg" viewBox="0 0 100 100"><defs><style>.cls-1{fill:#d0cac3;}.cls-2{fill:#04070e;}</style></defs><path class="cls-1" d="M100,50A50,50,0,1,1,50,0,50,50,0,0,1,100,50Z"/><path class="cls-2" d="M53.24,63.27,48.77,78.21H12V75.14Q14.67,72.08,23.87,63q5.36-5.49,10.72-11.5a33,33,0,0,0,4.09-5.24A16.13,16.13,0,0,0,42,36.7a12.59,12.59,0,0,0-3-8.24,9.43,9.43,0,0,0-7.6-3.64q-10,0-15.59,13.54l-3.44-1.28q6.76-19,21.2-19a16.93,16.93,0,0,1,12.2,4.85,16,16,0,0,1,5,12q0,9.08-10.61,17.75l-7.15,6A119.75,119.75,0,0,0,21.69,69.52a7.79,7.79,0,0,0-1.28,1.54H39.58c3,0,5.23-.64,6.77-1.92q1.9-1.53,3.83-5.87Zm-.51-13.42a46.42,46.42,0,0,1,4.6-20.56q6-11.74,16.23-11.75,9.82,0,15.71,10.08a38,38,0,0,1,4.59,18.91A45.14,45.14,0,0,1,89.27,67q-6,11.49-16.1,11.49-9.7,0-15.58-9.83A36.48,36.48,0,0,1,52.73,49.85Zm8.69-3.45a65.62,65.62,0,0,0,2,17.12q3.06,11.76,10.22,11.75,11.63,0,11.63-24.14,0-29.9-12.65-29.89-11.23,0-11.24,23.25Z"/></svg>