<svg id="Layer_1" data-name="Layer 1" xmlns="http://www.w3.org/2000/svg" viewBox="0 0 100 100"><defs><style>.cls-1{fill:#c2b7ae;}.cls-2{fill:#d0cac3;}.cls-3{fill:#04070e;}</style></defs><path class="cls-1" d="M85.35,14.64a50,50,0,1,1-70.7,70.71"/><path class="cls-2" d="M14.65,85.35a50,50,0,0,1,70.7-70.71"/><path class="cls-3" d="M43.65,41.59l-2.87,9.68H17V49.2q1.74-1.94,7.61-7.81,3.53-3.54,7-7.47a29.68,29.68,0,0,0,2.67-3.34,10.68,10.68,0,0,0,2.07-6.13A8.31,8.31,0,0,0,34.41,19,6,6,0,0,0,29.5,16.7q-6.46,0-10.14,8.75l-2.13-.81Q21.57,12.37,30.9,12.37a10.84,10.84,0,0,1,7.84,3.13A10.36,10.36,0,0,1,42,23.25q0,5.87-6.74,11.47l-4.67,3.87a72.48,72.48,0,0,0-7.4,7c-.14.14-.41.45-.81.94H34.77a7,7,0,0,0,4.34-1.13,9.88,9.88,0,0,0,2.47-3.81Z"/><path class="cls-3" d="M89.62,66q0,4-3,5.53a29.12,29.12,0,0,1-5.4,1.16c-2,.33-3,1.09-3,2.27v5c0,.2.07.84.19,1.9l.18,2a16.69,16.69,0,0,1-.43,3l-2.7.56a11.85,11.85,0,0,1-.49-2.52,4.33,4.33,0,0,1,.15-.92,4.51,4.51,0,0,0,.16-.92,10.84,10.84,0,0,0-.77-2.4h-1a1.27,1.27,0,0,0-.13.8,5.71,5.71,0,0,1,.19,1.78c-.7.49-1.66,1.15-2.89,2-.29-.09-.39-.13-.3-.13V80.66c-.09-.2-.29-.28-.62-.24h-.74l-.73,5.77a18.07,18.07,0,0,1-2.09,0q-.43-2-1.53-6h-.5l-.73,2.34a5.74,5.74,0,0,0,.15.95,6.16,6.16,0,0,1,.16,1c0,.12,0,.43-.13.92l-.18,1.47a.46.46,0,0,1-.31.13A2.75,2.75,0,0,1,60.83,86a4,4,0,0,1-.5-2.58l.5-7.37a1.43,1.43,0,0,1,.12-.49,1.41,1.41,0,0,0,.12-.43,5,5,0,0,0-1-2c-.13,0-.76-.18-1.91-.43-.69-.16-2.06-.45-4.11-.85-2.82-.54-4.24-2.81-4.24-6.82a18.43,18.43,0,0,1,7.37-14.92c.2,1.11.55,2.58,1,4.42l2.39.55,3.74,1.35a37.42,37.42,0,0,1-4.48-3.37,6.41,6.41,0,0,1-1-4.11c0-.46.78-1,2.33-1.6a13,13,0,0,1,3.13-1,42,42,0,0,1,5.1-.43q7.67,0,12.4,3.93a19.12,19.12,0,0,1-5.28,3.8,10.72,10.72,0,0,0,4.3-1.17c1.88-.81,2.68-1.22,2.39-1.22.33,0,1,.65,2,2a29.29,29.29,0,0,1,1.78,2.64,23,23,0,0,1,2.64,7.55c0,1,0,1.62.06,2ZM66.1,67.1a7.12,7.12,0,0,0-2.3-5,6.85,6.85,0,0,0-4.94-2.36,5.4,5.4,0,0,0-4.11,2A6.39,6.39,0,0,0,53,66.09a2.59,2.59,0,0,0,2,2.72,15.49,15.49,0,0,0,3.62.44H62Q66.1,69.31,66.1,67.1Zm6.7,7.61v-1.9c-.29-.54-.58-1.09-.86-1.66a33,33,0,0,0-1.35-3.44l-.68,7.18c0,.58-.12.86-.37.86a.53.53,0,0,1-.37-.12q-.42-6.51-.42-5.65V67.83a.38.38,0,0,0-.31-.18c-1.39,1.43-2.09,3.75-2.09,6.94,0,1.76.16,2.84.49,3.25A5.1,5.1,0,0,0,68,77.41a4.55,4.55,0,0,1,1.41-.12,7.2,7.2,0,0,1,2.82.73C72.59,78,72.8,76.92,72.8,74.71Zm13.87-8.56a6.25,6.25,0,0,0-1.84-4.41,5.68,5.68,0,0,0-4.23-2,6.61,6.61,0,0,0-4.82,2.36,7.16,7.16,0,0,0-2.25,4.95,1.88,1.88,0,0,0,2.09,2.15h7.06C85.34,69.2,86.67,68.18,86.67,66.15Z"/></svg>