<svg id="Layer_1" data-name="Layer 1" xmlns="http://www.w3.org/2000/svg" viewBox="0 0 100 100"><defs><style>.cls-1{fill:#9cc497;}.cls-2{fill:#d0cac3;}.cls-3{fill:#04070e;}</style></defs><path class="cls-1" d="M85.35,14.64a50,50,0,1,1-70.7,70.71"/><path class="cls-2" d="M14.65,85.35a50,50,0,0,1,70.7-70.71"/><path class="cls-3" d="M43.65,41.59l-2.87,9.68H17V49.2q1.74-1.94,7.61-7.81,3.53-3.54,7-7.47a29.68,29.68,0,0,0,2.67-3.34,10.68,10.68,0,0,0,2.07-6.13A8.31,8.31,0,0,0,34.41,19,6,6,0,0,0,29.5,16.7q-6.46,0-10.14,8.75l-2.13-.81Q21.57,12.37,30.9,12.37a10.84,10.84,0,0,1,7.84,3.13A10.36,10.36,0,0,1,42,23.25q0,5.87-6.74,11.47l-4.67,3.87a72.48,72.48,0,0,0-7.4,7c-.14.14-.41.45-.81.94H34.77a7,7,0,0,0,4.34-1.13,9.88,9.88,0,0,0,2.47-3.81Z"/><path class="cls-3" d="M89.52,67.62a2.85,2.85,0,0,1-.88,2,2.73,2.73,0,0,1-2,.91A2.81,2.81,0,0,1,84,68.87l-2.67-.12a15.19,15.19,0,0,0-3.34.74,8.78,8.78,0,0,0-3.07,1.19,6.9,6.9,0,0,0-1,3.18,19.94,19.94,0,0,0-.34,3A4.07,4.07,0,0,0,74,79.1a3.65,3.65,0,0,0,2,1.19,17.77,17.77,0,0,0,1.85.54,6.38,6.38,0,0,0,.73,0h.68a5.72,5.72,0,0,1,1.54.22c.75.23,1.07.53,1,.91a9.22,9.22,0,0,0-2.78.34l1.59.79c0,.46-.64.68-1.93.68a5.87,5.87,0,0,1-1.39-.22,5.48,5.48,0,0,0-1.16-.23h-.74A13.4,13.4,0,0,1,75,85a4.2,4.2,0,0,1-2.27-1.13,4.65,4.65,0,0,0-1.64-1.08c-.23,0-.55.36-1,1.08a4,4,0,0,0-.62,1.47,3.06,3.06,0,0,1-1.25-1.47c-.15-.5-.32-1-.51-1.48-.38,0-1.08.84-2.1,2.39h-.28c-.08-.12-.36-.91-.85-2.39a11,11,0,0,0-3.29-.56,11.43,11.43,0,0,0-2.27.34L57.36,82a12.7,12.7,0,0,1,2-1.31,6.6,6.6,0,0,1,2.95-1.14,2.32,2.32,0,0,1,.45.06,2.32,2.32,0,0,0,.45.06,3.38,3.38,0,0,0,1.28-.43c.59-.28.93-.54,1-.76a6.11,6.11,0,0,0,.14-1.76,6.3,6.3,0,0,0-1.7-4.82,9.38,9.38,0,0,0-4.88-2q-.9,3.23-5.1,3.23a3.7,3.7,0,0,1-2.72-1.64,4.91,4.91,0,0,1-1.36-3A4.2,4.2,0,0,1,51.63,65a4.36,4.36,0,0,1-1.41-3,3.86,3.86,0,0,1,.87-2.49,3.42,3.42,0,0,1,2.3-1.25,2.39,2.39,0,0,1,1.19-2.5A3.1,3.1,0,0,1,54,53.55a4.26,4.26,0,0,1,4.36-4.36,4.35,4.35,0,0,1,3.35,1.41Q63.32,45,68.76,45a6.71,6.71,0,0,1,5,2.27,7.2,7.2,0,0,1,.79.91c-.45,0-.22-.09.69-.26a12.12,12.12,0,0,1,2-.26,5.49,5.49,0,0,1,3.92,1.65,7.89,7.89,0,0,1,2,3.74,8.14,8.14,0,0,1,1.24.34,2.21,2.21,0,0,1,1.25,2.16,2.92,2.92,0,0,1-.45,1.08q3.63,2,3.63,5.67a7.73,7.73,0,0,1-.8,2.83A2.72,2.72,0,0,1,89.52,67.62ZM66.15,70.11v-.73A3.08,3.08,0,0,0,64.88,67a4,4,0,0,0-2.58-1.08,6.08,6.08,0,0,0-2.95.73Q62.35,66.49,66.15,70.11Zm-1-7a13.33,13.33,0,0,1-1.47-2c-1.59.41-2.39.89-2.39,1.41a7.1,7.1,0,0,1,2,.26A9.06,9.06,0,0,0,65.13,63.08Zm3.46-1.76V58.83c-.91-.15-1.46-.23-1.64-.23v.85ZM76,59.74q-.67-.29-2.55-1.14v4.88Q76.08,62,76,59.74Zm3.12,6.69L77.84,64.9c-.76.53-1.53,1.06-2.3,1.61a10.21,10.21,0,0,0-2,1.85A19.32,19.32,0,0,1,79.08,66.43Z"/></svg>