<svg id="Layer_1" data-name="Layer 1" xmlns="http://www.w3.org/2000/svg" viewBox="0 0 100 100"><defs><style>.cls-1{fill:#f8a076;}.cls-2{fill:#d0cac3;}.cls-3{fill:#04070e;}</style></defs><path class="cls-1" d="M85.35,14.64a50,50,0,1,1-70.7,70.71"/><path class="cls-2" d="M14.65,85.35a50,50,0,0,1,70.7-70.71"/><path class="cls-3" d="M88.3,74.44q-2.58,6.15-10.24,6.14a14.17,14.17,0,0,0-3,.36c-1.64.35-2.46.84-2.46,1.46a1,1,0,0,0,.41.67,1.11,1.11,0,0,0,.7.38c-1,0-.31,0,2,.09s3.74.09,4.33.09q-5.08,3-17,2.75a8.65,8.65,0,0,1-6.73-3.46,10.8,10.8,0,0,1-2.75-7.19,10,10,0,0,1,2.84-7.17,9.38,9.38,0,0,1,7-3,10.55,10.55,0,0,1,2.49.41,9.76,9.76,0,0,0,2.07.41,11.75,11.75,0,0,0,5.39-1.78,24.19,24.19,0,0,0,3-1.79q-.58,6.15-4.09,8.26c-1.68,1-2.52,1.93-2.52,2.86a1.58,1.58,0,0,0,1,1.41,4.06,4.06,0,0,0,1.82.41,4,4,0,0,0,3-1.88,4.77,4.77,0,0,0,1.29-3.39,16.23,16.23,0,0,1,.23-4.21A4.46,4.46,0,0,1,78,64.58a3.56,3.56,0,0,1,1.32-1.26,7.13,7.13,0,0,1-.38,1.76,6.64,6.64,0,0,0-.38,1.81,2.68,2.68,0,0,0,.7,2c.7-.27,1.32-1.15,1.87-2.63A10.67,10.67,0,0,0,81.92,63a7.42,7.42,0,0,1-4.71-2.22A6.22,6.22,0,0,1,75,56.18a3,3,0,0,1,.12-.82l1,1.64c.66,1,1.17,1.46,1.52,1.46s.7-.48.7-1.46a6.06,6.06,0,0,0-1-3.39,3.31,3.31,0,0,0-2.87-1.82,6.07,6.07,0,0,0-2.46.88,6.49,6.49,0,0,1-3,.88,26.32,26.32,0,0,1-3.63-1c3.78-.63,5.68-1.19,5.68-1.7,0-1.33-2.6-2.22-7.79-2.69l-2.81-.24c.16-.19,1.27-.41,3.34-.64,1.76-.19,3-.29,3.68-.29q13.94,0,17.68,13.52a2.21,2.21,0,0,0,.64-1.78,11.83,11.83,0,0,0-.93-4c-.24-.63-.61-1.58-1.12-2.85q4.8,6.12,4.8,11.59a10.41,10.41,0,0,1-1.34,5.23A21.43,21.43,0,0,1,84,72.67a28.81,28.81,0,0,0-3.28,3.82,31.66,31.66,0,0,0,4.22-1.35,12.24,12.24,0,0,0,4-3A6.52,6.52,0,0,1,88.3,74.44Zm-25.51-23a1.32,1.32,0,0,1-1.17,1.35L60.09,53c-.54.27-1.34,1.35-2.39,3.22-.12-.58-.3-1.4-.53-2.46a4.77,4.77,0,0,0-1.76.94c-.35.27-.91.68-1.7,1.23a8.54,8.54,0,0,1,2.35-4.27c1.4-1.6,2.77-2.4,4.09-2.4Q62.79,49.28,62.79,51.44ZM73,56.83a1.93,1.93,0,0,1-1.08,1.66,4.07,4.07,0,0,1-2.14.68,3.12,3.12,0,0,1-2.52-1.58,6.7,6.7,0,0,0-2.75-2.52,1,1,0,0,1,.71-.29A4.12,4.12,0,0,1,67,55.6a4.71,4.71,0,0,0,1.61.82c.2,0,.52-.28,1-.82a1.93,1.93,0,0,1,1.5-.82C72.32,54.78,73,55.46,73,56.83Z"/><path class="cls-3" d="M43.65,41.59l-2.87,9.68H17V49.2q1.74-1.94,7.61-7.81c2.35-2.35,4.69-4.85,7-7.47a29.68,29.68,0,0,0,2.67-3.34,10.68,10.68,0,0,0,2.07-6.13A8.31,8.31,0,0,0,34.41,19a6.07,6.07,0,0,0-4.91-2.33q-6.46,0-10.14,8.74l-2.13-.8Q21.57,12.37,30.9,12.37a10.84,10.84,0,0,1,7.84,3.13A10.36,10.36,0,0,1,42,23.25q0,5.87-6.74,11.47l-4.67,3.87a72.48,72.48,0,0,0-7.4,7c-.14.14-.41.45-.81.94H34.77a7,7,0,0,0,4.34-1.13,9.88,9.88,0,0,0,2.47-3.81Z"/></svg>