<svg id="Layer_1" data-name="Layer 1" xmlns="http://www.w3.org/2000/svg" viewBox="0 0 100 100"><defs><style>.cls-1{fill:#bcd9e8;}.cls-2{fill:#d0cac3;}.cls-3{fill:#04070e;}</style></defs><path class="cls-1" d="M85.35,14.64a50,50,0,1,1-70.7,70.71"/><path class="cls-2" d="M14.65,85.35a50,50,0,0,1,70.7-70.71"/><path class="cls-3" d="M76.72,83.67a13.39,13.39,0,0,1-9.94,4.11,13.14,13.14,0,0,1-10.53-4.54,16.41,16.41,0,0,1-3.67-11q0-7.2,6.27-16.43a62.13,62.13,0,0,1,12-13.26,35.82,35.82,0,0,0-1,6.56,15.61,15.61,0,0,0,2.82,8.72q3.45,5,5.26,7.49a15.09,15.09,0,0,1,2.81,8.29A13.83,13.83,0,0,1,76.72,83.67Zm-.07-15.38a6.55,6.55,0,0,0-2.52-3.21,2.88,2.88,0,0,1,.21,1.22,15.84,15.84,0,0,1-.86,4.33l-.94,2.88A2.23,2.23,0,0,0,75.06,76q2.67,0,2.67-3.54A10.58,10.58,0,0,0,76.65,68.29Z"/><path class="cls-3" d="M43.65,41.59l-2.87,9.68H17V49.2q1.74-1.94,7.61-7.81c2.35-2.35,4.69-4.85,7-7.47a29.68,29.68,0,0,0,2.67-3.34,10.68,10.68,0,0,0,2.07-6.13A8.31,8.31,0,0,0,34.41,19a6.07,6.07,0,0,0-4.91-2.33q-6.46,0-10.14,8.74l-2.13-.8Q21.57,12.37,30.9,12.37a10.84,10.84,0,0,1,7.84,3.13A10.36,10.36,0,0,1,42,23.25q0,5.87-6.74,11.47l-4.67,3.87a72.48,72.48,0,0,0-7.4,7c-.14.14-.41.45-.81.94H34.77a7,7,0,0,0,4.34-1.13,9.88,9.88,0,0,0,2.47-3.81Z"/></svg>