<svg id="Layer_1" data-name="Layer 1" xmlns="http://www.w3.org/2000/svg" viewBox="0 0 100 100"><defs><style>.cls-1{fill:#f8f6da;}.cls-2{fill:#d0cac3;}.cls-3{fill:#04070e;}</style></defs><path class="cls-1" d="M85.35,14.64a50,50,0,1,1-70.7,70.71"/><path class="cls-2" d="M14.65,85.35a50,50,0,0,1,70.7-70.71"/><path class="cls-3" d="M43.65,41.59l-2.87,9.68H17V49.2q1.74-1.94,7.61-7.81,3.53-3.54,7-7.47a29.68,29.68,0,0,0,2.67-3.34,10.68,10.68,0,0,0,2.07-6.13A8.31,8.31,0,0,0,34.41,19,6,6,0,0,0,29.5,16.7q-6.46,0-10.14,8.75l-2.13-.81Q21.57,12.37,30.9,12.37a10.84,10.84,0,0,1,7.84,3.13A10.36,10.36,0,0,1,42,23.25q0,5.87-6.74,11.47l-4.67,3.87a72.48,72.48,0,0,0-7.4,7c-.14.14-.41.45-.81.94H34.77a7,7,0,0,0,4.34-1.13,9.88,9.88,0,0,0,2.47-3.81Z"/><path class="cls-3" d="M88,73.11c-2.44-2.26-4-3.49-4.85-3.68-.57-.14-1.13.2-1.67,1a2,2,0,0,1-2.27.85,14,14,0,0,1-2.33-1A5.86,5.86,0,0,0,75.37,72a2.24,2.24,0,0,0,.55,1.62,2.56,2.56,0,0,0,1.3,1.17,5.09,5.09,0,0,0,1.09.09,4.74,4.74,0,0,1,.93,0c.44.1.47,1,.07,2.59a37,37,0,0,1-2.79,6.9q-.09-5.86-1.65-6.24a2.76,2.76,0,0,0-1,.11,2.73,2.73,0,0,1-1.08.08q-1.56-.37-2.13-3.54c-1.72-.15-2.75.5-3.1,1.95a2,2,0,0,0,.59,2c.56.59.82,1,.78,1.16-.23,1-2,2.13-5.36,3.47-1.77.73-3,1.23-3.68,1.53A14.8,14.8,0,0,0,62,82.77a7.11,7.11,0,0,0,1.53-2.56c.09-.36-.21-1-.88-1.82A2.72,2.72,0,0,1,61.93,76a5.51,5.51,0,0,1,1.19-2.12,2.21,2.21,0,0,0-1.49-1.22c-1.44-.34-2.27,0-2.5.89.16-.65,0-.16-.35,1.46-.25,1.2-1.29,1.58-3.14,1.14a42.71,42.71,0,0,1-6.86-2.67q6-.06,6.41-1.9a8.19,8.19,0,0,1,.1-1.35c.12-1.16,1.16-2,3.11-2.47.07-1.74-.6-2.77-2-3.11-.21,0-.7.23-1.46.85a2.37,2.37,0,0,1-1.9.75c-.87-.21-1.76-1.41-2.68-3.62-.43-1.1-1.09-2.72-2-4.89l2.18,1.9A6.71,6.71,0,0,0,53,61.06c.51.12,1.11-.2,1.81-1A2.24,2.24,0,0,1,57,59.22q.16,0,2,1.17a5.17,5.17,0,0,0,1.59-2.08,2.46,2.46,0,0,0-.43-1.68A2.2,2.2,0,0,0,59,55.45a3.59,3.59,0,0,0-.88,0,3.55,3.55,0,0,1-.88,0q-1-.23-.39-2.67c.1-.43,1.11-2.81,3-7.12a9.86,9.86,0,0,0,0,3.2c.18,1.95.69,3,1.52,3.23a2.9,2.9,0,0,0,.94-.12,2.66,2.66,0,0,1,1.11-.08,2.44,2.44,0,0,1,1.72,1.9l.46,1.66A2.56,2.56,0,0,0,67.64,55a2.82,2.82,0,0,0,1.23-1.77,2.06,2.06,0,0,0-.57-2.05c-.57-.58-.83-1-.77-1.19q.27-1.14,4.49-3a26.6,26.6,0,0,1,4.35-1.65c-2.05,1.72-3.2,3.07-3.43,4a2.44,2.44,0,0,0,.53,1.85,5.68,5.68,0,0,1,1,1.77,5.28,5.28,0,0,1-.92,3.39,4.64,4.64,0,0,0,2,1.56,1.45,1.45,0,0,0,2-1.25c0-.11.06-.46.11-1.06a3.7,3.7,0,0,1,.15-1c.27-.47,1.32-.48,3.16,0a54.08,54.08,0,0,1,7,2.7L84,57.44c-1.55.09-2.39.4-2.52.94a5.86,5.86,0,0,0,0,1.37,5.79,5.79,0,0,1,0,1.42c-.12.5-.56.89-1.31,1.17l-2.16.86a9.59,9.59,0,0,0,.53,1.62,1.86,1.86,0,0,0,1.31,1c.43.1.92-.18,1.46-.86a1.86,1.86,0,0,1,2-.72c1,.24,1.86,1.4,2.66,3.5Q86.57,69.51,88,73.11Zm-11.27-6a9,9,0,0,0-6.52-10.61A9,9,0,0,0,59.5,63a8,8,0,0,0,1.14,6.6,8.77,8.77,0,0,0,5.49,4,8.67,8.67,0,0,0,6.72-.94A8.26,8.26,0,0,0,76.73,67.09Zm-.82-.19a7.53,7.53,0,0,1-3.53,4.94,8.22,8.22,0,0,1-11-2.69A7.74,7.74,0,0,1,64,58.35,7.89,7.89,0,0,1,74.89,61,7.54,7.54,0,0,1,75.91,66.9Z"/></svg>