<svg id="Layer_1" data-name="Layer 1" xmlns="http://www.w3.org/2000/svg" viewBox="0 0 100 100"><defs><style>.cls-1{fill:#d0cac3;}.cls-2{fill:#04070e;}</style></defs><path class="cls-1" d="M100,50A50,50,0,1,1,50,0,50,50,0,0,1,100,50Z"/><path class="cls-2" d="M39.56,52.56l-2-3.77L38.88,48q7.75-4.71,14.19-9.56t6.43-11a9.1,9.1,0,0,0-3.09-7,10.32,10.32,0,0,0-7.24-2.84q-9.66,0-20.39,12L25.42,27Q36.6,10,52.76,10a20.57,20.57,0,0,1,12.12,3.5,12.28,12.28,0,0,1,5.66,10.65c0,3.22-1.35,6.37-4,9.42a52.66,52.66,0,0,1-8.08,7L56.8,41.79a20.84,20.84,0,0,1,2.56-.14,15.27,15.27,0,0,1,12.19,5.66,19.8,19.8,0,0,1,4.78,13.2q0,12.8-10.77,21.41a35.52,35.52,0,0,1-23,8.08q-12,0-18.86-5.25l2.43-3.37q8.07,3.91,14.68,3.91a25.61,25.61,0,0,0,17-6.33A19.8,19.8,0,0,0,65.28,63.2a15.62,15.62,0,0,0-3.77-10.57,12.35,12.35,0,0,0-9.83-4.38Q46.16,48.25,39.56,52.56Z"/></svg>