<svg id="Layer_1" data-name="Layer 1" xmlns="http://www.w3.org/2000/svg" viewBox="0 0 100 100"><defs><style>.cls-1{fill:#d0cac3;}.cls-2{fill:#04070e;}</style></defs><path class="cls-1" d="M100,50A50,50,0,1,1,50,0,50,50,0,0,1,100,50Z"/><path class="cls-2" d="M35,11.35H63.9c3.75,0,6-.45,6.7-1.35h4.16L72.34,20.92H37L33.61,36.71a37.09,37.09,0,0,1,13.63-3.1A27,27,0,0,1,66.8,41.37a25.94,25.94,0,0,1,8,19.36A26.38,26.38,0,0,1,64.37,82.45Q54.79,90,41,90a52.11,52.11,0,0,1-15.79-2.43l1.62-4a44.49,44.49,0,0,0,11.47,1.75A25.76,25.76,0,0,0,55.8,78.74a20.88,20.88,0,0,0,7.49-16.4,18.77,18.77,0,0,0-5.53-14,19.16,19.16,0,0,0-14-5.46,22.92,22.92,0,0,0-14.57,5.39l-2.7-.54Z"/></svg>