<svg id="Layer_1" data-name="Layer 1" xmlns="http://www.w3.org/2000/svg" viewBox="0 0 100 100"><defs><style>.cls-1{fill:#d0cac3;}.cls-2{fill:#04070e;}</style></defs><path class="cls-1" d="M100,50A50,50,0,1,1,50,0,50,50,0,0,1,100,50Z"/><path class="cls-2" d="M36.58,44.67q8.89-8.36,17.94-8.36a18.87,18.87,0,0,1,15.79,7.82A27.42,27.42,0,0,1,75.84,61.4a30.83,30.83,0,0,1-6.48,19.43Q62.21,90,51.55,90q-12.81,0-20.5-11.06-6.89-9.72-6.88-23.07A46.71,46.71,0,0,1,32,29.77,42.63,42.63,0,0,1,52.9,12.84,43.51,43.51,0,0,1,68.55,10v4.18q-17.53.95-26.17,14A39.33,39.33,0,0,0,36.58,44.67Zm-.81,8.1c-.09,1.61-.14,3.23-.14,4.85a45.37,45.37,0,0,0,3.24,17.27q4.18,10.38,12.28,10.39,7,0,10.52-7.15a30.23,30.23,0,0,0,2.7-13.36,36,36,0,0,0-2.57-14.3Q58.29,42.39,51,42.38,42.11,42.38,35.77,52.77Z"/></svg>