<svg id="Layer_1" data-name="Layer 1" xmlns="http://www.w3.org/2000/svg" viewBox="0 0 100 100"><defs><style>.cls-1{fill:#d0cac3;}.cls-2{fill:#04070e;}</style></defs><path class="cls-1" d="M100,50A50,50,0,1,1,50,0,50,50,0,0,1,100,50Z"/><path class="cls-2" d="M41,49.46l-1.74-1.21Q31.54,43,29.11,39.76A15,15,0,0,1,26,30.34q0-9.16,7.67-14.95A26.76,26.76,0,0,1,50.26,10,27.21,27.21,0,0,1,66,14.71q7.8,5.26,7.81,13.88,0,10.5-14.68,17,16.7,8.07,16.7,22.49A19.57,19.57,0,0,1,67.9,84.48Q60.77,90,50,90a29.39,29.39,0,0,1-17.38-5.12q-8.35-5.79-8.34-15.35t8.88-15.76A83.61,83.61,0,0,1,41,49.46Zm4.58,1.92q-12.12,5.5-12.11,17.36,0,7.67,4.91,12.31a17.6,17.6,0,0,0,12.6,4.64A18.47,18.47,0,0,0,62.58,82a12.26,12.26,0,0,0,4.78-10.28q0-9.94-13.09-16.12Zm9-8q10.63-4.71,10.64-14.14A13.07,13.07,0,0,0,60.7,18.89,16.42,16.42,0,0,0,49.59,15,15.72,15.72,0,0,0,40,18a10.14,10.14,0,0,0-4.44,8.62q0,6.6,6.2,10.64Q43,38,52.55,42.46Z"/></svg>