<svg id="Layer_1" data-name="Layer 1" xmlns="http://www.w3.org/2000/svg" viewBox="0 0 100 100"><defs><style>.cls-1{fill:#d0cac3;}.cls-2{fill:#04070e;}</style></defs><path class="cls-1" d="M100,50A50,50,0,1,1,50,0,50,50,0,0,1,100,50Z"/><path class="cls-2" d="M63.4,55.52q-8.88,8.35-17.91,8.36a18.81,18.81,0,0,1-15.76-7.82,27.33,27.33,0,0,1-5.52-17.24,31.73,31.73,0,0,1,6.46-19.53Q37.68,10,48.32,10q12.93,0,20.61,11.18Q75.8,31,75.79,44.48q0,19.13-12.65,32.26T31.48,90V85.83a38.74,38.74,0,0,0,9.3-1.35Q60.16,78.56,63.4,55.52Zm.81-8.08c.09-1.7.13-3.32.13-4.84a44.53,44.53,0,0,0-3.23-17.24Q56.81,15,48.73,15c-4.68,0-8.13,2.39-10.38,7.14a30.17,30.17,0,0,0-2.69,13.34,35.83,35.83,0,0,0,2.56,14.27Q41.72,57.82,49,57.82,57.88,57.82,64.21,47.44Z"/></svg>