<svg id="Layer_1" data-name="Layer 1" xmlns="http://www.w3.org/2000/svg" viewBox="0 0 100 100"><defs><style>.cls-1{fill:#c2b7ae;}.cls-2{fill:#04070e;}</style></defs><path class="cls-1" d="M100,50A50,50,0,1,1,50,0,50,50,0,0,1,100,50Z"/><path class="cls-2" d="M90.7,48.62q0,8.28-6,11.29c-1.18.58-4.85,1.38-11,2.38q-6,1-6,4.64V77.09c0,.42.13,1.71.38,3.88l.37,4a34.41,34.41,0,0,1-.88,6.14c-1.58.34-3.42.71-5.51,1.13a24.62,24.62,0,0,1-1-5.14,8.54,8.54,0,0,1,.32-1.88,9.12,9.12,0,0,0,.31-1.88A22,22,0,0,0,60,78.47H58.1a2.41,2.41,0,0,0-.26,1.63,11.79,11.79,0,0,1,.37,3.63c-1.42,1-3.38,2.34-5.89,4-.59-.17-.79-.25-.63-.25V78.59c-.16-.41-.58-.58-1.25-.5H48.93l-1.5,11.79a37.54,37.54,0,0,1-4.26,0Q42.29,85.74,40,77.59H39Q37.65,82,37.52,82.36a10.57,10.57,0,0,0,.32,1.94,12.32,12.32,0,0,1,.31,1.94,18.25,18.25,0,0,1-.25,1.88l-.38,3a.85.85,0,0,1-.63.25c-2.5,0-4.18-.62-5-1.88a8.25,8.25,0,0,1-1-5.27l1-15a2.87,2.87,0,0,1,.25-1,3.06,3.06,0,0,0,.25-.87q0-1-2.13-4c-.25-.08-1.55-.37-3.89-.88q-2.13-.49-8.4-1.75Q9.31,59,9.3,46.74q0-18.32,15.06-30.48.62,3.39,2.12,9l4.9,1.13q.75.25,7.65,2.76a77.15,77.15,0,0,1-9.16-6.9q-2.13-2.51-2.13-8.4c0-.92,1.59-2,4.77-3.26a27.47,27.47,0,0,1,6.39-2,88.65,88.65,0,0,1,10.41-.88q15.67,0,25.33,8-3.14,3.65-10.78,7.78c2,.08,4.93-.71,8.78-2.39s5.47-2.5,4.89-2.5q1,0,4,4a58.43,58.43,0,0,1,3.64,5.39,47.23,47.23,0,0,1,5.39,15.43c0,1.92,0,3.3.13,4.14Zm-48,2.26c0-3.6-1.56-7-4.7-10.23s-6.5-4.82-10.09-4.82a11.05,11.05,0,0,0-8.41,4,13.09,13.09,0,0,0-3.63,9A5.32,5.32,0,0,0,20,54.38a31.09,31.09,0,0,0,7.4.89h6.9Q42.66,55.39,42.66,50.88ZM56.33,66.43V62.54c-.58-1.08-1.17-2.21-1.75-3.39a63.58,63.58,0,0,0-2.76-7L50.44,66.8c0,1.17-.25,1.76-.75,1.76a1,1,0,0,1-.76-.25Q48.06,55,48.05,56.77V52.38a.72.72,0,0,0-.62-.38q-4.26,4.39-4.26,14.18c0,3.59.33,5.81,1,6.64A10.74,10.74,0,0,0,46.43,72a9,9,0,0,1,2.88-.25,14.79,14.79,0,0,1,5.77,1.5Q56.33,73.2,56.33,66.43ZM84.68,49a12.79,12.79,0,0,0-3.77-9,11.59,11.59,0,0,0-8.65-4Q67,36,62.42,40.78t-4.58,10.1c0,2.92,1.42,4.39,4.26,4.39H76.52Q84.68,55.14,84.68,49Z"/></svg>