<svg id="Layer_1" data-name="Layer 1" xmlns="http://www.w3.org/2000/svg" viewBox="0 0 100 100"><defs><style>.cls-1{fill:#9cc497;}.cls-2{fill:#c2b7ae;}.cls-3{fill:#04070e;}</style></defs><path class="cls-1" d="M85.35,14.64a50,50,0,1,1-70.7,70.71"/><path class="cls-2" d="M14.65,85.35a50,50,0,0,1,70.7-70.71"/><path class="cls-3" d="M53.26,28.11c0,2.7-1,4.55-2.95,5.53a29.12,29.12,0,0,1-5.4,1.16c-2,.33-2.95,1.09-2.95,2.27v5c0,.21.06.84.18,1.9l.19,2a17.76,17.76,0,0,1-.43,3l-2.7.55A11.85,11.85,0,0,1,38.71,47a4.33,4.33,0,0,1,.15-.92,4.33,4.33,0,0,0,.15-.92,10.55,10.55,0,0,0-.76-2.39h-1a1.17,1.17,0,0,0-.13.79,6.38,6.38,0,0,1,.19,1.78c-.7.49-1.66,1.15-2.89,2-.29-.08-.39-.12-.31-.12V42.79c-.08-.21-.28-.29-.61-.25h-.74l-.74,5.77a17.9,17.9,0,0,1-2.08,0q-.43-2-1.54-6H28c-.45,1.43-.69,2.21-.74,2.33a6.16,6.16,0,0,0,.16.95,5.74,5.74,0,0,1,.15,1,8.28,8.28,0,0,1-.12.92l-.19,1.48a.41.41,0,0,1-.3.12,2.78,2.78,0,0,1-2.46-.92A4.09,4.09,0,0,1,24,45.55l.49-7.37a1.48,1.48,0,0,1,.12-.49,1.25,1.25,0,0,0,.13-.43,5,5,0,0,0-1.05-2c-.12,0-.75-.18-1.9-.42-.7-.17-2.07-.45-4.11-.86-2.83-.53-4.24-2.81-4.24-6.82a18.43,18.43,0,0,1,7.37-14.92c.2,1.11.55,2.58,1,4.42l2.4.56L28,18.6a38.86,38.86,0,0,1-4.48-3.38,6.34,6.34,0,0,1-1.05-4.11c0-.45.78-1,2.34-1.6a13.3,13.3,0,0,1,3.13-1A42,42,0,0,1,33,8.1q7.66,0,12.4,3.93a19.23,19.23,0,0,1-5.28,3.8,10.71,10.71,0,0,0,4.3-1.16c1.88-.82,2.68-1.23,2.39-1.23.33,0,1,.65,2,2A28.6,28.6,0,0,1,50.55,18a23.1,23.1,0,0,1,2.65,7.55,20,20,0,0,0,.06,2ZM29.74,29.22a7.16,7.16,0,0,0-2.3-5,6.87,6.87,0,0,0-4.94-2.36,5.41,5.41,0,0,0-4.12,2,6.44,6.44,0,0,0-1.78,4.38,2.6,2.6,0,0,0,2,2.72,15,15,0,0,0,3.62.44h3.38Q29.74,31.43,29.74,29.22Zm6.69,7.61v-1.9c-.28-.53-.57-1.09-.85-1.66a32.14,32.14,0,0,0-1.36-3.44L33.55,37c0,.58-.12.86-.37.86a.51.51,0,0,1-.37-.12q-.44-6.51-.43-5.65V30a.35.35,0,0,0-.31-.19C30.68,31.2,30,33.52,30,36.71c0,1.76.16,2.84.49,3.25a5,5,0,0,0,1.1-.43A4.68,4.68,0,0,1,33,39.41a7.28,7.28,0,0,1,2.82.74C36.23,40.15,36.43,39,36.43,36.83Zm13.88-8.55a6.25,6.25,0,0,0-1.84-4.42,5.68,5.68,0,0,0-4.24-1.95,6.59,6.59,0,0,0-4.82,2.37,7.15,7.15,0,0,0-2.24,4.94,1.88,1.88,0,0,0,2.09,2.15h7.06Q50.31,31.31,50.31,28.28Z"/><path class="cls-3" d="M89.52,67.62a2.85,2.85,0,0,1-.88,2,2.73,2.73,0,0,1-2,.91A2.81,2.81,0,0,1,84,68.87l-2.67-.12a15.19,15.19,0,0,0-3.34.74,8.78,8.78,0,0,0-3.07,1.19,6.9,6.9,0,0,0-1,3.18,19.94,19.94,0,0,0-.34,3A4.07,4.07,0,0,0,74,79.1a3.65,3.65,0,0,0,2,1.19,18.72,18.72,0,0,0,1.84.54,6.38,6.38,0,0,0,.74,0h.68a5.72,5.72,0,0,1,1.54.22c.75.23,1.07.53,1,.91a9.22,9.22,0,0,0-2.78.34l1.59.79c0,.46-.64.68-1.93.68a5.87,5.87,0,0,1-1.39-.22,5.6,5.6,0,0,0-1.16-.23h-.74A13.4,13.4,0,0,1,75,85a4.2,4.2,0,0,1-2.27-1.13,4.65,4.65,0,0,0-1.64-1.08c-.23,0-.55.36-1,1.08a4,4,0,0,0-.62,1.47,3.06,3.06,0,0,1-1.25-1.47c-.15-.5-.32-1-.51-1.48-.38,0-1.08.84-2.1,2.39h-.28c-.08-.12-.36-.91-.85-2.39a11,11,0,0,0-3.29-.56,11.43,11.43,0,0,0-2.27.34L57.36,82a12.7,12.7,0,0,1,2-1.31,6.6,6.6,0,0,1,2.95-1.14,2.32,2.32,0,0,1,.45.06,2.32,2.32,0,0,0,.45.06,3.38,3.38,0,0,0,1.28-.43c.59-.28.93-.54,1-.76a6.11,6.11,0,0,0,.14-1.76,6.3,6.3,0,0,0-1.7-4.82,9.38,9.38,0,0,0-4.88-2q-.9,3.23-5.1,3.23a3.7,3.7,0,0,1-2.72-1.64,4.91,4.91,0,0,1-1.36-3A4.2,4.2,0,0,1,51.63,65a4.36,4.36,0,0,1-1.41-3,3.86,3.86,0,0,1,.87-2.49,3.42,3.42,0,0,1,2.3-1.25,2.39,2.39,0,0,1,1.19-2.5A3.1,3.1,0,0,1,54,53.55a4.26,4.26,0,0,1,4.36-4.36,4.35,4.35,0,0,1,3.35,1.41Q63.32,45,68.76,45a6.71,6.71,0,0,1,5,2.27,7.2,7.2,0,0,1,.79.91c-.45,0-.22-.09.68-.26a12.34,12.34,0,0,1,2-.26,5.49,5.49,0,0,1,3.92,1.65,7.89,7.89,0,0,1,2,3.74,8.14,8.14,0,0,1,1.24.34,2.21,2.21,0,0,1,1.25,2.16,2.92,2.92,0,0,1-.45,1.08q3.63,2,3.63,5.67a7.73,7.73,0,0,1-.8,2.83A2.72,2.72,0,0,1,89.52,67.62ZM66.15,70.11v-.73A3.08,3.08,0,0,0,64.88,67a4,4,0,0,0-2.58-1.08,6.08,6.08,0,0,0-2.95.73Q62.35,66.49,66.15,70.11Zm-1-7a13.33,13.33,0,0,1-1.47-2c-1.59.41-2.39.89-2.39,1.41a7.1,7.1,0,0,1,2,.26A9.06,9.06,0,0,0,65.13,63.08Zm3.46-1.76V58.83c-.91-.15-1.46-.23-1.64-.23v.85ZM76,59.74q-.67-.29-2.55-1.14v4.88Q76.08,62,76,59.74Zm3.12,6.69L77.83,64.9l-2.29,1.61a10.21,10.21,0,0,0-2,1.85A19.21,19.21,0,0,1,79.08,66.43Z"/></svg>