<svg id="Layer_1" data-name="Layer 1" xmlns="http://www.w3.org/2000/svg" viewBox="0 0 100 100"><defs><style>.cls-1{fill:#f8a076;}.cls-2{fill:#c2b7ae;}.cls-3{fill:#04070e;}</style></defs><path class="cls-1" d="M85.35,14.64a50,50,0,1,1-70.7,70.71"/><path class="cls-2" d="M14.65,85.35a50,50,0,0,1,70.7-70.71"/><path class="cls-3" d="M88.3,74.44q-2.58,6.15-10.24,6.15a14.12,14.12,0,0,0-3,.35c-1.64.35-2.46.84-2.46,1.46a1,1,0,0,0,.41.67,1.14,1.14,0,0,0,.7.39c-1,0-.31,0,2,.08s3.74.09,4.33.09q-5.08,3-17,2.75a8.67,8.67,0,0,1-6.73-3.45,10.84,10.84,0,0,1-2.75-7.2,10,10,0,0,1,2.84-7.17,9.37,9.37,0,0,1,7-3,10.05,10.05,0,0,1,2.49.41,10.48,10.48,0,0,0,2.07.41,11.79,11.79,0,0,0,5.39-1.79,25.39,25.39,0,0,0,3-1.78q-.58,6.14-4.09,8.25c-1.68,1-2.52,1.93-2.52,2.86a1.58,1.58,0,0,0,1,1.41,4.06,4.06,0,0,0,1.82.41,4,4,0,0,0,3-1.87,4.81,4.81,0,0,0,1.29-3.4,16.23,16.23,0,0,1,.23-4.21A4.46,4.46,0,0,1,78,64.58a3.56,3.56,0,0,1,1.32-1.26,7.13,7.13,0,0,1-.38,1.76,6.64,6.64,0,0,0-.38,1.81,2.67,2.67,0,0,0,.7,2c.7-.27,1.32-1.15,1.87-2.63A10.6,10.6,0,0,0,81.92,63a7.37,7.37,0,0,1-4.71-2.22A6.22,6.22,0,0,1,75,56.18a2.84,2.84,0,0,1,.12-.81c.23.35.58.89,1,1.63.66,1,1.17,1.47,1.52,1.47s.7-.49.7-1.47a6.09,6.09,0,0,0-1-3.39,3.3,3.3,0,0,0-2.87-1.81,6,6,0,0,0-2.46.87,6.37,6.37,0,0,1-3,.88,26.32,26.32,0,0,1-3.63-1c3.78-.63,5.68-1.19,5.68-1.7,0-1.33-2.6-2.22-7.79-2.69l-2.81-.24c.16-.19,1.27-.4,3.34-.64,1.76-.19,3-.29,3.68-.29q13.94,0,17.68,13.52a2.2,2.2,0,0,0,.64-1.78,11.83,11.83,0,0,0-.93-4c-.24-.63-.61-1.58-1.12-2.84q4.8,6.11,4.8,11.58a10.39,10.39,0,0,1-1.34,5.23A21.43,21.43,0,0,1,84,72.67a28.81,28.81,0,0,0-3.28,3.82,30.18,30.18,0,0,0,4.22-1.35,12.24,12.24,0,0,0,4-3A6.52,6.52,0,0,1,88.3,74.44Zm-25.51-23a1.32,1.32,0,0,1-1.17,1.35L60.09,53c-.54.28-1.34,1.35-2.39,3.22-.12-.58-.3-1.4-.53-2.45a4.69,4.69,0,0,0-1.76.93c-.35.27-.91.68-1.7,1.23a8.58,8.58,0,0,1,2.35-4.27c1.4-1.6,2.77-2.4,4.09-2.4Q62.79,49.28,62.79,51.44ZM73,56.83a2,2,0,0,1-1.08,1.67,4.14,4.14,0,0,1-2.14.67,3.12,3.12,0,0,1-2.52-1.58,6.7,6.7,0,0,0-2.75-2.52,1,1,0,0,1,.71-.29A4.12,4.12,0,0,1,67,55.6a4.52,4.52,0,0,0,1.61.82c.2,0,.52-.27,1-.82a1.93,1.93,0,0,1,1.5-.82C72.32,54.78,73,55.46,73,56.83Z"/><path class="cls-3" d="M53.26,28.11c0,2.7-1,4.55-2.95,5.53a29.12,29.12,0,0,1-5.4,1.16c-2,.33-2.95,1.09-2.95,2.27v5c0,.21.06.84.18,1.9l.19,2a17.76,17.76,0,0,1-.43,3l-2.7.55A11.85,11.85,0,0,1,38.71,47a4.33,4.33,0,0,1,.15-.92,4.33,4.33,0,0,0,.15-.92,10.55,10.55,0,0,0-.76-2.39h-1a1.17,1.17,0,0,0-.13.79,5.66,5.66,0,0,1,.18,1.78c-.69.49-1.65,1.15-2.88,2-.29-.08-.39-.12-.31-.12V42.79c-.08-.21-.28-.29-.61-.25h-.74l-.74,5.77a17.9,17.9,0,0,1-2.08,0q-.43-2-1.54-6H28c-.45,1.43-.69,2.21-.74,2.33a6.16,6.16,0,0,0,.16.95,5.74,5.74,0,0,1,.15,1,8.28,8.28,0,0,1-.12.92l-.19,1.48a.41.41,0,0,1-.3.12,2.78,2.78,0,0,1-2.46-.92A4.09,4.09,0,0,1,24,45.55l.49-7.37a1.48,1.48,0,0,1,.12-.49,1.25,1.25,0,0,0,.13-.43,5,5,0,0,0-1.05-2c-.12,0-.75-.18-1.9-.42-.7-.17-2.07-.45-4.11-.86-2.83-.53-4.24-2.81-4.24-6.82a18.43,18.43,0,0,1,7.37-14.92c.2,1.11.55,2.58,1,4.42l2.4.56L28,18.6a38.86,38.86,0,0,1-4.48-3.38,6.34,6.34,0,0,1-1.05-4.11c0-.45.78-1,2.34-1.6a13.3,13.3,0,0,1,3.13-1A42,42,0,0,1,33,8.1q7.66,0,12.4,3.93a19.23,19.23,0,0,1-5.28,3.8,10.71,10.71,0,0,0,4.3-1.16c1.88-.82,2.68-1.23,2.39-1.23.33,0,1,.65,2,2A28.6,28.6,0,0,1,50.55,18a23.34,23.34,0,0,1,2.65,7.55c0,.95,0,1.62.06,2ZM29.74,29.22a7.16,7.16,0,0,0-2.3-5,6.87,6.87,0,0,0-4.94-2.36,5.41,5.41,0,0,0-4.12,2,6.44,6.44,0,0,0-1.78,4.38,2.6,2.6,0,0,0,2,2.72,15,15,0,0,0,3.62.44h3.38Q29.74,31.43,29.74,29.22Zm6.69,7.61v-1.9c-.28-.53-.57-1.09-.85-1.66a32.14,32.14,0,0,0-1.36-3.44L33.55,37c0,.58-.12.86-.37.86a.51.51,0,0,1-.37-.12q-.44-6.51-.43-5.65V30a.35.35,0,0,0-.31-.19C30.68,31.2,30,33.52,30,36.71c0,1.76.16,2.84.49,3.25a5,5,0,0,0,1.1-.43A4.68,4.68,0,0,1,33,39.41a7.24,7.24,0,0,1,2.82.74C36.23,40.15,36.43,39,36.43,36.83Zm13.88-8.55a6.25,6.25,0,0,0-1.84-4.42,5.68,5.68,0,0,0-4.24-1.95,6.59,6.59,0,0,0-4.82,2.37,7.15,7.15,0,0,0-2.24,4.94,1.88,1.88,0,0,0,2.09,2.15h7.06Q50.31,31.31,50.31,28.28Z"/></svg>