<svg id="Layer_1" data-name="Layer 1" xmlns="http://www.w3.org/2000/svg" viewBox="0 0 120 100"><defs><style>.cls-1{fill-rule:evenodd;}</style></defs><path class="cls-1" d="M76.14,0C39.37,1.68,80.39,33,59.66,49.5h0l-.3.13C44.83,55.5,28.66,31.91,28.19,56.7c7.67-11.51,11.16-.28,23.77-1-6.12,8.09-3.12,21.67-13.33,23.88C20,83.63,6.33,61,7.47,46.73,10,15.13,34.76.76,59.35,2.24,26.8-4.28-.79,22.55,0,50.38,1,82.29,17.88,97.9,43.86,100c36.77-1.68-4.25-33,16.48-49.5h0l.3-.13C75.17,44.5,91.34,68.09,91.81,43.3c-7.67,11.51-11.16.28-23.77,1,6.12-8.09,3.12-21.67,13.33-23.87,18.65-4,32.3,18.63,31.16,32.86-2.53,31.61-27.29,46-51.88,44.49C93.2,104.28,120.79,77.45,120,49.62,119.06,17.71,102.12,2.1,76.14,0Z"/></svg>