<svg id="Layer_1" data-name="Layer 1" xmlns="http://www.w3.org/2000/svg" viewBox="0 0 100 100"><defs><style>.cls-1{fill:#9cc497;}.cls-2{fill:#04070e;}</style></defs><path class="cls-1" d="M100,50A50,50,0,1,1,50,0,50,50,0,0,1,100,50Z"/><path class="cls-2" d="M93.76,56.22a6.3,6.3,0,0,1-1.93,4.5,6,6,0,0,1-4.44,2A6.18,6.18,0,0,1,81.52,59l-5.87-.25a33.32,33.32,0,0,0-7.37,1.63Q62.42,62,61.53,63q-1.37,1.5-2.24,7a43.41,43.41,0,0,0-.75,6.62,8.93,8.93,0,0,0,1.06,4.93c.71,1,2.16,1.92,4.37,2.62s3.56,1.11,4.06,1.19q.5,0,1.62-.12h1.5a12.47,12.47,0,0,1,3.38.5c1.66.5,2.37,1.16,2.12,2a19.49,19.49,0,0,0-6.12.75L74,90.2c0,1-1.42,1.5-4.25,1.5a12.68,12.68,0,0,1-3.06-.5,13.61,13.61,0,0,0-2.56-.5H62.53a27.75,27.75,0,0,1-.75,3.75c-1.41-.08-3.08-.92-5-2.5s-3.13-2.37-3.62-2.37S52,90.37,51,92a8.46,8.46,0,0,0-1.37,3.25A6.78,6.78,0,0,1,46.92,92c-.34-1.08-.71-2.16-1.13-3.25q-1.24.14-4.62,5.25h-.62a55.17,55.17,0,0,1-1.88-5.25,23.68,23.68,0,0,0-7.24-1.24,26.33,26.33,0,0,0-5,.74L22.94,88a28.27,28.27,0,0,1,4.37-2.88c2.83-1.66,5-2.5,6.49-2.5a5,5,0,0,1,1,.13,5.62,5.62,0,0,0,1,.12,7.56,7.56,0,0,0,2.81-.94q1.94-.93,2.25-1.68a13.69,13.69,0,0,0,.31-3.87q0-7.12-3.75-10.62-3.24-3.12-10.74-4.5-2,7.13-11.24,7.12c-2,0-4-1.2-6-3.62s-3-4.62-3-6.62a9.22,9.22,0,0,1,3.87-7.62C8.24,48.31,7.2,46.11,7.2,43.86a8.47,8.47,0,0,1,1.93-5.5,7.44,7.44,0,0,1,5.06-2.75c-.17-2.66.71-4.49,2.62-5.49q-1.36-1.38-1.37-4.87a9.41,9.41,0,0,1,9.62-9.63,9.58,9.58,0,0,1,7.37,3.13Q36,6.39,48,6.38a14.76,14.76,0,0,1,11,5,17.15,17.15,0,0,1,1.74,2c-1,0-.49-.19,1.5-.56a26.44,26.44,0,0,1,4.38-.57,12.05,12.05,0,0,1,8.62,3.63,17.3,17.3,0,0,1,4.49,8.24,18.38,18.38,0,0,1,2.75.75,4.88,4.88,0,0,1,2.75,4.75,6.44,6.44,0,0,1-1,2.37q8,4.5,8,12.49a17.08,17.08,0,0,1-1.74,6.25A6,6,0,0,1,93.76,56.22Zm-51.47,5.5V60.1a6.83,6.83,0,0,0-2.8-5.25,8.83,8.83,0,0,0-5.69-2.37,13.44,13.44,0,0,0-6.49,1.62Q33.92,53.73,42.29,61.72ZM40.05,46.23a31.68,31.68,0,0,1-3.25-4.37Q31.55,43.24,31.55,45a15.43,15.43,0,0,1,4.37.56A20.37,20.37,0,0,0,40.05,46.23Zm7.62-3.87v-5.5a36.23,36.23,0,0,0-3.62-.5v1.88Zm16.24-3.5c-1-.41-2.88-1.25-5.62-2.5V47.11Q64.16,43.74,63.91,38.86ZM70.78,53.6,68,50.23,63,53.79a22.74,22.74,0,0,0-4.43,4.06A42.77,42.77,0,0,1,70.78,53.6Z"/></svg>