<svg id="Layer_1" data-name="Layer 1" xmlns="http://www.w3.org/2000/svg" viewBox="0 0 100 100"><defs><style>.cls-1{fill:#bcd9e8;}.cls-2{fill:#9cc497;}.cls-3{fill:#04070e;}</style></defs><path class="cls-1" d="M85.35,14.64a50,50,0,1,1-70.7,70.71"/><path class="cls-2" d="M14.65,85.35a50,50,0,0,1,70.7-70.71"/><path class="cls-3" d="M76.72,83.67a13.39,13.39,0,0,1-9.94,4.11,13.14,13.14,0,0,1-10.53-4.54,16.42,16.42,0,0,1-3.68-11q0-7.2,6.28-16.43a62.13,62.13,0,0,1,12-13.26,35.56,35.56,0,0,0-1,6.56,15.59,15.59,0,0,0,2.81,8.72q3.45,5,5.26,7.49a15.09,15.09,0,0,1,2.81,8.29A13.83,13.83,0,0,1,76.72,83.67Zm-.07-15.38a6.55,6.55,0,0,0-2.52-3.21,2.88,2.88,0,0,1,.21,1.22,15.84,15.84,0,0,1-.86,4.33l-.94,2.88A2.23,2.23,0,0,0,75.06,76q2.67,0,2.67-3.54A10.58,10.58,0,0,0,76.65,68.29Z"/><path class="cls-3" d="M51.64,34.29a2.86,2.86,0,0,1-.88,2,2.75,2.75,0,0,1-2,.9,2.8,2.8,0,0,1-2.67-1.7l-2.66-.11a15.12,15.12,0,0,0-3.35.74A8.39,8.39,0,0,0,37,37.35a6.74,6.74,0,0,0-1,3.17,20.17,20.17,0,0,0-.34,3,4.07,4.07,0,0,0,.48,2.24,3.71,3.71,0,0,0,2,1.19c1,.32,1.62.5,1.85.54a7.08,7.08,0,0,0,.73-.06h.68a5.64,5.64,0,0,1,1.54.23c.75.23,1.07.53,1,.91a8.92,8.92,0,0,0-2.78.34l1.59.79c0,.46-.64.68-1.93.68a6,6,0,0,1-1.39-.22,5.48,5.48,0,0,0-1.16-.23h-.74a13.4,13.4,0,0,1-.34,1.7,4.31,4.31,0,0,1-2.27-1.13,4.65,4.65,0,0,0-1.64-1.08c-.23,0-.55.36-1,1.08A3.86,3.86,0,0,0,31.62,52a3.16,3.16,0,0,1-1.25-1.47c-.15-.5-.32-1-.51-1.48-.38,0-1.07.83-2.1,2.38h-.28A23.41,23.41,0,0,1,26.63,49a10.7,10.7,0,0,0-3.29-.57,12.24,12.24,0,0,0-2.27.34l-1.59-.11a13,13,0,0,1,2-1.3,6.6,6.6,0,0,1,3-1.14,2.32,2.32,0,0,1,.45.06,2.32,2.32,0,0,0,.46.06,3.6,3.6,0,0,0,1.27-.43c.59-.28.93-.54,1-.77a6,6,0,0,0,.14-1.75,6.29,6.29,0,0,0-1.7-4.83,9.54,9.54,0,0,0-4.88-2q-.9,3.24-5.1,3.24a3.7,3.7,0,0,1-2.72-1.65,4.91,4.91,0,0,1-1.36-3,4.18,4.18,0,0,1,1.75-3.46,4.4,4.4,0,0,1-1.41-3,3.84,3.84,0,0,1,.88-2.5,3.36,3.36,0,0,1,2.29-1.24,2.38,2.38,0,0,1,1.19-2.5,3.1,3.1,0,0,1-.62-2.21,4.27,4.27,0,0,1,4.37-4.37,4.35,4.35,0,0,1,3.34,1.42q1.65-5.61,7.09-5.61a6.65,6.65,0,0,1,5,2.27,7.52,7.52,0,0,1,.8.9c-.46,0-.23-.08.68-.25a12.12,12.12,0,0,1,2-.26A5.48,5.48,0,0,1,43.25,16a7.89,7.89,0,0,1,2,3.74,8.5,8.5,0,0,1,1.25.34,2.21,2.21,0,0,1,1.24,2.16,3,3,0,0,1-.45,1.07Q51,25.32,51,29a7.92,7.92,0,0,1-.79,2.84A2.73,2.73,0,0,1,51.64,34.29ZM28.27,36.78V36A3.1,3.1,0,0,0,27,33.66a4,4,0,0,0-2.58-1.08,6.12,6.12,0,0,0-3,.74Q24.47,33.16,28.27,36.78Zm-1-7a14.75,14.75,0,0,1-1.47-2c-1.59.42-2.38.89-2.38,1.42a6.72,6.72,0,0,1,2,.26A9.16,9.16,0,0,0,27.25,29.75ZM30.71,28v-2.5a15.35,15.35,0,0,0-1.64-.22v.85Zm7.38-1.59c-.46-.19-1.31-.57-2.56-1.13v4.87C37.31,29.12,38.16,27.88,38.09,26.4Zm3.11,6.69L40,31.56l-2.3,1.62a10.17,10.17,0,0,0-2,1.84A19.32,19.32,0,0,1,41.2,33.09Z"/></svg>