<svg id="Layer_1" data-name="Layer 1" xmlns="http://www.w3.org/2000/svg" viewBox="0 0 100 100"><defs><style>.cls-1{fill:#f8f6da;}.cls-2{fill:#9cc497;}.cls-3{fill:#04070e;}</style></defs><path class="cls-1" d="M85.35,14.64a50,50,0,1,1-70.7,70.71"/><path class="cls-2" d="M14.65,85.35a50,50,0,0,1,70.7-70.71"/><path class="cls-3" d="M88,73.11c-2.44-2.26-4-3.49-4.85-3.68-.57-.14-1.13.2-1.67,1a1.94,1.94,0,0,1-2.27.86,14,14,0,0,1-2.33-1A5.86,5.86,0,0,0,75.37,72a2.24,2.24,0,0,0,.55,1.62,2.56,2.56,0,0,0,1.3,1.17,5.09,5.09,0,0,0,1.09.09,4.74,4.74,0,0,1,.93,0c.44.1.47,1,.07,2.59a37,37,0,0,1-2.79,6.9c-.06-3.91-.61-6-1.65-6.24a2.76,2.76,0,0,0-1,.11,2.73,2.73,0,0,1-1.08.08q-1.56-.37-2.13-3.54c-1.72-.15-2.75.5-3.1,1.95a2,2,0,0,0,.59,2c.56.59.82,1,.78,1.16-.23,1-2,2.13-5.36,3.47-1.77.73-3,1.23-3.68,1.53A14.8,14.8,0,0,0,62,82.77a7.11,7.11,0,0,0,1.53-2.56c.09-.36-.21-1-.88-1.82A2.72,2.72,0,0,1,61.93,76a5.51,5.51,0,0,1,1.19-2.12,2.21,2.21,0,0,0-1.49-1.22c-1.44-.35-2.27,0-2.5.89.16-.65,0-.16-.35,1.46-.25,1.2-1.29,1.58-3.14,1.14a42.71,42.71,0,0,1-6.86-2.67q6-.06,6.41-1.9a8.19,8.19,0,0,1,.1-1.35c.12-1.16,1.16-2,3.11-2.47.07-1.74-.6-2.77-2-3.11-.21,0-.7.23-1.46.85a2.37,2.37,0,0,1-1.9.75c-.87-.21-1.76-1.41-2.68-3.62-.43-1.1-1.09-2.72-2-4.89l2.18,1.9A6.71,6.71,0,0,0,53,61.06c.51.12,1.11-.2,1.81-1A2.24,2.24,0,0,1,57,59.22q.16,0,2,1.17a5.17,5.17,0,0,0,1.59-2.08,2.46,2.46,0,0,0-.43-1.68A2.2,2.2,0,0,0,59,55.45a3.14,3.14,0,0,0-.88,0,3.55,3.55,0,0,1-.88,0c-.65-.16-.78-1-.39-2.67.1-.43,1.11-2.81,3-7.12a9.86,9.86,0,0,0,0,3.2c.18,1.95.69,3,1.52,3.23a2.9,2.9,0,0,0,.94-.12,2.66,2.66,0,0,1,1.11-.08,2.44,2.44,0,0,1,1.72,1.9l.46,1.66A2.56,2.56,0,0,0,67.64,55a2.82,2.82,0,0,0,1.23-1.77,2.08,2.08,0,0,0-.57-2.06c-.57-.57-.83-1-.77-1.18q.27-1.14,4.49-3a28.12,28.12,0,0,1,4.35-1.66c-2.05,1.73-3.2,3.08-3.43,4a2.44,2.44,0,0,0,.53,1.85,5.68,5.68,0,0,1,1,1.77,5.28,5.28,0,0,1-.92,3.39,4.64,4.64,0,0,0,2,1.56,1.45,1.45,0,0,0,2-1.25c0-.11.06-.46.11-1.06a3.7,3.7,0,0,1,.15-1c.27-.47,1.32-.48,3.16,0a52.55,52.55,0,0,1,7,2.7L84,57.44c-1.55.09-2.39.4-2.52.94a5.86,5.86,0,0,0,0,1.37,5.79,5.79,0,0,1,0,1.42c-.12.5-.56.89-1.31,1.17l-2.16.86a9.59,9.59,0,0,0,.53,1.62,1.89,1.89,0,0,0,1.31,1c.43.1.92-.18,1.46-.86a1.86,1.86,0,0,1,2-.72c1,.24,1.86,1.4,2.66,3.5Q86.57,69.51,88,73.11Zm-11.27-6a9,9,0,0,0-6.52-10.61A9,9,0,0,0,59.5,63a8,8,0,0,0,1.14,6.6,8.77,8.77,0,0,0,5.49,4,8.67,8.67,0,0,0,6.72-.94A8.26,8.26,0,0,0,76.73,67.09Zm-.82-.19a7.53,7.53,0,0,1-3.53,4.94,8.22,8.22,0,0,1-11-2.69A7.74,7.74,0,0,1,64,58.35,7.89,7.89,0,0,1,74.89,61,7.54,7.54,0,0,1,75.91,66.9Z"/><path class="cls-3" d="M51.64,34.32a2.86,2.86,0,0,1-.88,2,2.76,2.76,0,0,1-2,.91,2.81,2.81,0,0,1-2.67-1.71l-2.66-.11a15.12,15.12,0,0,0-3.35.74A8.59,8.59,0,0,0,37,37.38a6.74,6.74,0,0,0-1,3.17,20.17,20.17,0,0,0-.34,3,4.07,4.07,0,0,0,.48,2.24,3.71,3.71,0,0,0,2,1.19c1,.32,1.62.5,1.85.54a7.08,7.08,0,0,0,.73-.06h.68a5.64,5.64,0,0,1,1.54.23c.75.23,1.07.53,1,.91a8.92,8.92,0,0,0-2.78.34l1.59.79c0,.46-.64.68-1.93.68a6,6,0,0,1-1.39-.22A5.48,5.48,0,0,0,38.2,50h-.74a13.4,13.4,0,0,1-.34,1.7,4.31,4.31,0,0,1-2.27-1.13,4.65,4.65,0,0,0-1.64-1.08c-.23,0-.55.36-1,1.08A3.92,3.92,0,0,0,31.62,52a3.11,3.11,0,0,1-1.25-1.47c-.15-.5-.32-1-.51-1.48-.38,0-1.07.83-2.1,2.38h-.28a23.41,23.41,0,0,1-.85-2.38,10.7,10.7,0,0,0-3.29-.57,12.24,12.24,0,0,0-2.27.34l-1.59-.11a13,13,0,0,1,2-1.3,6.6,6.6,0,0,1,3-1.14,2.32,2.32,0,0,1,.45.06,2.32,2.32,0,0,0,.46.06A3.6,3.6,0,0,0,26.6,46c.59-.28.93-.54,1-.76a6.11,6.11,0,0,0,.14-1.76,6.26,6.26,0,0,0-1.7-4.82,9.38,9.38,0,0,0-4.88-2q-.9,3.22-5.1,3.23a3.7,3.7,0,0,1-2.72-1.65,4.87,4.87,0,0,1-1.36-3,4.2,4.2,0,0,1,1.75-3.46,4.4,4.4,0,0,1-1.41-3,3.82,3.82,0,0,1,.88-2.5A3.36,3.36,0,0,1,15.51,25a2.39,2.39,0,0,1,1.19-2.5,3.1,3.1,0,0,1-.62-2.21,4.27,4.27,0,0,1,4.37-4.37,4.35,4.35,0,0,1,3.34,1.42q1.65-5.61,7.09-5.61a6.65,6.65,0,0,1,5,2.27,8.61,8.61,0,0,1,.8.9c-.46,0-.23-.08.68-.25a12.12,12.12,0,0,1,2-.26A5.48,5.48,0,0,1,43.25,16a7.89,7.89,0,0,1,2,3.74,8.5,8.5,0,0,1,1.25.34,2.21,2.21,0,0,1,1.24,2.16,2.83,2.83,0,0,1-.45,1.07A6.28,6.28,0,0,1,51,29a7.88,7.88,0,0,1-.79,2.83A2.73,2.73,0,0,1,51.64,34.32ZM28.27,36.81v-.73A3.11,3.11,0,0,0,27,33.69a4,4,0,0,0-2.58-1.07,6.11,6.11,0,0,0-3,.73Q24.47,33.19,28.27,36.81Zm-1-7a14.15,14.15,0,0,1-1.47-2c-1.59.42-2.38.89-2.38,1.42a7.08,7.08,0,0,1,2,.26A9.16,9.16,0,0,0,27.25,29.78ZM30.71,28V25.53c-.91-.15-1.45-.23-1.64-.23v.85Zm7.38-1.59c-.46-.19-1.31-.56-2.56-1.13v4.88Q38.2,28.65,38.09,26.43Zm3.11,6.7L40,31.59l-2.3,1.62a10.17,10.17,0,0,0-2,1.84A19,19,0,0,1,41.2,33.13Z"/></svg>