<svg id="Layer_1" data-name="Layer 1" xmlns="http://www.w3.org/2000/svg" viewBox="0 0 100 100"><defs><style>.cls-1{fill:#d0cac3;}.cls-2{fill:#04070e;}</style></defs><path class="cls-1" d="M100,50A50,50,0,1,1,50,0,50,50,0,0,1,100,50Z"/><path class="cls-2" d="M52.31,6.25V33.5c0,3.26,1.37,4.88,4.11,4.88h.72v1.87H42.64V38.38h.91c2.66,0,4-1.62,4-4.88V15.62q0-4.93-3.43-4.94H42.64V8.87h.53a12.33,12.33,0,0,0,7.68-2.62Z"/><path class="cls-2" d="M61.55,80.5,59.05,89H38.23V87.15q1.52-1.7,6.65-6.82Q48,77.24,51,73.8a26.45,26.45,0,0,0,2.33-2.92,9.33,9.33,0,0,0,1.81-5.36,7.32,7.32,0,0,0-1.66-4.73,5.27,5.27,0,0,0-4.29-2q-5.65,0-8.86,7.64l-1.87-.7Q42.26,55,50.42,55a9.48,9.48,0,0,1,6.85,2.74,9,9,0,0,1,2.83,6.76q0,5.15-5.89,10l-4.08,3.38A63.66,63.66,0,0,0,43.65,84c-.11.12-.35.39-.69.82H53.8a6.12,6.12,0,0,0,3.79-1,8.65,8.65,0,0,0,2.16-3.33Z"/><path class="cls-2" d="M20.73,49.46V46.54H79.06v2.92Z"/></svg>