<svg id="Layer_1" data-name="Layer 1" xmlns="http://www.w3.org/2000/svg" viewBox="0 0 50 100"><defs><style>.cls-1{fill:#f8a076;}.cls-2{fill:#04070e;}</style></defs><path class="cls-1" d="M0,0V100A50,50,0,0,0,50,50,50,50,0,0,0,0,0Z"/><path class="cls-2" d="M34.69,68.14a69.26,69.26,0,0,1-9.17,2.93,62.19,62.19,0,0,1,7.13-8.31,46,46,0,0,0,7.13-8.83,22.48,22.48,0,0,0,2.93-11.38q0-11.89-10.44-25.2c1.1,2.76,1.91,4.82,2.42,6.2a25.67,25.67,0,0,1,2,8.77,4.8,4.8,0,0,1-1.4,3.88Q27.63,8.39.11,6.89v4.57c3,1,4.53,2.24,4.53,3.73,0,.67-1.53,1.38-4.53,2.14v3.83H.19a13.9,13.9,0,0,0,6.49-1.91C9.05,18,10.84,17.35,12,17.35q3.81,0,6.24,3.95a13.23,13.23,0,0,1,2.16,7.38c0,2.12-.51,3.19-1.53,3.19-.76,0-1.86-1.07-3.31-3.19-1-1.61-1.78-2.8-2.29-3.56a6.43,6.43,0,0,0-.25,1.78q0,5.34,4.9,9.93T28.2,41.67a23.28,23.28,0,0,1-1.79,7.12q-1.78,4.85-4.07,5.73a5.83,5.83,0,0,1-1.53-4.32,15.15,15.15,0,0,1,.83-4,15.07,15.07,0,0,0,.82-3.82,7.59,7.59,0,0,0-2.86,2.74,9.67,9.67,0,0,0-1.84,3.75,34.94,34.94,0,0,0-.51,9.17q.38,3.31-2.8,7.38c-2.13,2.72-4.29,4.07-6.5,4.07A8.61,8.61,0,0,1,4,68.65c-1.53-.76-2.3-1.78-2.3-3.05q0-3.06,5.48-6.24,7.63-4.57,8.91-18c.26,0-2,1.3-6.62,3.88A30.83,30.83,0,0,1,.11,49V92.33Q16,91.3,24,86.6q-1.9,0-9.42-.19c-5-.12-6.45-.19-4.32-.19a2.44,2.44,0,0,1-1.53-.83,2.18,2.18,0,0,1-.89-1.46q0-2,5.34-3.18A31.78,31.78,0,0,1,19.79,80q16.68,0,22.28-13.36a14.47,14.47,0,0,0,1.4-5A26.46,26.46,0,0,1,34.69,68.14Z"/><path class="cls-2" d="M6.36,31.93A4.25,4.25,0,0,0,8.72,28.3q0-4.46-4.2-4.45a4.19,4.19,0,0,0-3.25,1.78A12.72,12.72,0,0,1,.11,26.88v6.24a5.12,5.12,0,0,0,1.6.27A8.73,8.73,0,0,0,6.36,31.93Z"/></svg>