<svg id="Layer_1" data-name="Layer 1" xmlns="http://www.w3.org/2000/svg" viewBox="0 0 50 100"><defs><style>.cls-1{fill:#f8f6da;}.cls-2{fill:#04070e;}</style></defs><path class="cls-1" d="M0,0V100A50,50,0,0,0,50,50,50,50,0,0,0,0,0Z"/><path class="cls-2" d="M18,49.75a17,17,0,0,0-5.37-12.49A17.41,17.41,0,0,0,.21,32V67.53a17.66,17.66,0,0,0,12.61-5A17,17,0,0,0,18,49.75Z"/><path class="cls-2" d="M40.46,46.34Q36.17,40,32.76,40a4.21,4.21,0,0,0-4,2.65C27.88,44.45,27,45.33,26,45.33a4.22,4.22,0,0,1-3.41-1.51,20.13,20.13,0,0,1-2-3.28l4.29-3c1.51-1,2.27-2.1,2.27-3.28a12.63,12.63,0,0,0-.63-3.16,12.64,12.64,0,0,1-.63-3q0-1.89,5.05-3.41l8.32-2.27Q26.46,20.1,22.41,20.1q-6.43,0-6.94,1.76a7.76,7.76,0,0,0,.19,2.28c.21,1.34.32,2.14.32,2.39,0,2.52-1.22,3.79-3.66,3.79q-1.77,0-5.17-2.4c1-3.36,1.09-6,.25-8a12.31,12.31,0,0,0-3-3.4C2.94,15.22,2.23,14,2.23,12.78q0-3.4,5.42-10.72A53.31,53.31,0,0,0,.21,7V29.82A19.18,19.18,0,0,1,14,35.74a19.19,19.19,0,0,1,5.93,14,18.6,18.6,0,0,1-5.62,14.19A19.57,19.57,0,0,1,.21,69.54V92.18c6.2-4.47,9.33-7.81,9.33-10,0-.42-.78-1.13-2.33-2.14a4.61,4.61,0,0,1-2.33-4c0-3.37,1.93-5.34,5.8-5.93q2.91,6.69,6.56,6.69A6.35,6.35,0,0,0,19.57,76a6.46,6.46,0,0,1,2.09-.76q3.64,0,6.93,12.87,2.54-11.22,2.53-16.65,0-5.69-1.55-5.68a11.33,11.33,0,0,0-2.06.38,11.21,11.21,0,0,1-2.45.38c-.95,0-2.11-.63-3.49-1.9s-2.06-2.35-2.06-3.28q0-1,2.4-4.66a32.18,32.18,0,0,0,5.68,1,4.41,4.41,0,0,0,4.54-3.1q1.14-3.09,3.15-3.09,2.78,0,12.62,5.55Q42.85,49.88,40.46,46.34Z"/></svg>