<svg id="Layer_1" data-name="Layer 1" xmlns="http://www.w3.org/2000/svg" viewBox="0 0 100 100"><defs><style>.cls-1{fill:#d0cac3;}.cls-2{fill:#04070e;}</style></defs><path class="cls-1" d="M100,50A50,50,0,1,1,50,0,50,50,0,0,1,100,50Z"/><path class="cls-2" d="M49.94,45.26Q60.71,30.19,74,30.19q8.83,0,14.1,5.39T93.32,49.8q0,8.85-5.26,14.42c-3.5,3.73-8.17,5.59-14,5.59q-13,0-24.15-15.07Q38.5,69.82,26,69.81q-8.84,0-14.09-5.52T6.68,49.94q0-8.84,5.26-14.29T26,30.19Q38.77,30.19,49.94,45.26Zm-3.77,4.81Q36,36.16,25.77,36.17A12.8,12.8,0,0,0,16,40a13.82,13.82,0,0,0-3.63,9.94A14.3,14.3,0,0,0,16,60a12.57,12.57,0,0,0,9.74,4Q35.52,64,46.17,50.07Zm7.4,0Q64.1,64,74.23,64a12.41,12.41,0,0,0,9.54-3.83,14,14,0,0,0,3.58-9.93c0-4.24-1.2-7.65-3.58-10.2S78.12,36.17,74,36.17a18.24,18.24,0,0,0-11.69,4.42A62.48,62.48,0,0,0,53.57,50.07Z"/></svg>