<svg id="Layer_1" data-name="Layer 1" xmlns="http://www.w3.org/2000/svg" viewBox="0 0 55.31 100"><defs><style>.cls-1{fill:#0b0e12;}</style></defs><path class="cls-1" d="M55.3,50.24a23.67,23.67,0,0,0-5-14.92c-1.61-1.78-2.93-3.79-4.63-5.47-3.76-3.72-9.38-4-13.9-6.32-.27-2.36-1.13-4.71-.6-7.09a3.28,3.28,0,0,0,0-2.35C30,11.36,31,8.39,30.8,5.54c-.16-1.48-.06-3.3-1.48-4.22a45.89,45.89,0,0,1-2.39,8.92c-.42,2.29-.42,4.67-1.41,6.83.63,2.19-.61,4-2,5.65-3,1.52-6.49,1.88-9.07,4.11A48,48,0,0,1,8.6,31C7.05,33,5.34,34.83,4.65,37.27,1.89,40.61,1.57,45.08,0,49c0,5.8,1.15,12,4.85,16.69C7.5,67.87,9.35,70.81,12,73c2.54,1.52,5.25,2.76,7.87,4.13,1.71.4,3.48.59,5.18,1.06,1.38,7.11,2.32,14.39,5.09,21.13.92-2.77.81-5.74,1.6-8.53,1.12-4.14-1.18-8.44.12-12.5,1.93-1.74,5.17-.61,7.32-2.1,4.09-2.52,8.42-5,11.39-8.84,1.1-2.22,3.42-3.87,3.42-6.54C54,57.22,56.1,53.87,55.3,50.24ZM24.93,72.17a24.66,24.66,0,0,1-8.21-3.87C14,66.52,13,63.19,10.4,61.37c-2.47-2.95-1.93-7-2.95-10.48.41-2.43.89-4.85,1.14-7.32,1.21-2,3.07-3.52,3.58-5.87,1.77-2.53,4.46-4.28,6.62-6.48,1.58-1.81,4.08-1,6.14-1.12a17.5,17.5,0,0,0,.13,6c.25,1.21.8,2.41.61,3.68-.42,2.7.6,5.4-.12,8.07-1.44,5.58.13,11.21.27,16.83A50.49,50.49,0,0,1,24.93,72.17ZM47.41,61.6a45.86,45.86,0,0,0-5.35,4.79c-3,2.06-5.93,4.24-9.47,5.27.32-2.53.63-5.13-.17-7.61-2-5.59.44-11.45.85-17.1-.36-3.37,0-7-1.56-10.05-.2-2.33.81-4.57,1.49-6.76A23.8,23.8,0,0,1,39.7,34c2.35,1.76,6,2.91,6.48,6.2.27,2.16,2.64,3.46,2.57,5.67C48.6,51.09,49.32,56.58,47.41,61.6Z"/></svg>