<svg id="Layer_1" data-name="Layer 1" xmlns="http://www.w3.org/2000/svg" viewBox="0 0 100 100"><defs><style>.cls-1{fill:#f8a076;}.cls-2{fill:#04070e;}</style></defs><circle class="cls-1" cx="50" cy="50" r="50"/><path class="cls-2" d="M92,66.62Q86.37,80,69.69,80a31.63,31.63,0,0,0-6.62.77q-5.35,1.14-5.35,3.18a2.23,2.23,0,0,0,.89,1.46,2.48,2.48,0,0,0,1.53.83c-2.12,0-.68.07,4.33.19s8.15.19,9.42.19q-11.07,6.5-37,6-8.54-.14-14.64-7.51a23.46,23.46,0,0,1-6-15.66,21.7,21.7,0,0,1,6.18-15.6A20.41,20.41,0,0,1,37.74,47.4a22.15,22.15,0,0,1,5.41.89,22.59,22.59,0,0,0,4.51.89q4.71,0,11.72-3.89C64,42.71,66.25,41.41,66,41.41q-1.27,13.37-8.92,18c-3.64,2.12-5.47,4.2-5.47,6.24,0,1.27.77,2.29,2.29,3.05a8.62,8.62,0,0,0,4,.89c2.2,0,4.37-1.35,6.49-4.07s3.06-5.17,2.8-7.38a35.83,35.83,0,0,1,.51-9.17,9.71,9.71,0,0,1,1.85-3.75,7.52,7.52,0,0,1,2.86-2.74,14.77,14.77,0,0,1-.83,3.82,15,15,0,0,0-.82,4,5.82,5.82,0,0,0,1.52,4.32q2.3-.89,4.08-5.73a23.25,23.25,0,0,0,1.78-7.12q-5.36-.26-10.25-4.84t-4.9-9.93a6.09,6.09,0,0,1,.26-1.78c.51.76,1.27,1.95,2.29,3.56,1.44,2.12,2.54,3.19,3.31,3.19,1,0,1.52-1.07,1.52-3.19a13.23,13.23,0,0,0-2.16-7.38q-2.41-3.94-6.24-3.95-1.79,0-5.34,1.91a13.9,13.9,0,0,1-6.49,1.91q-.9,0-7.9-2.29c8.23-1.35,12.35-2.59,12.35-3.69q0-4.33-16.93-5.86c-1.11-.08-3.14-.25-6.11-.51q.51-.63,7.26-1.4c3.81-.42,6.49-.63,8-.63q30.3,0,38.45,29.41a4.8,4.8,0,0,0,1.4-3.88,25.49,25.49,0,0,0-2-8.77c-.51-1.38-1.32-3.44-2.42-6.2Q92.6,30.65,92.6,42.55a22.48,22.48,0,0,1-2.93,11.38,45.62,45.62,0,0,1-7.13,8.83,63,63,0,0,0-7.13,8.31,68.73,68.73,0,0,0,9.17-2.93,26.6,26.6,0,0,0,8.79-6.49A14.31,14.31,0,0,1,92,66.62Zm-55.5-50c0,1.53-.85,2.5-2.54,2.93L30.61,20q-1.78.88-5.22,7c-.26-1.27-.64-3.06-1.15-5.35a10.64,10.64,0,0,0-3.82,2q-1.14.88-3.69,2.67.76-4.58,5.09-9.29,4.59-5.22,8.91-5.22Q36.46,11.88,36.46,16.59ZM58.61,28.3a4.24,4.24,0,0,1-2.35,3.63,8.73,8.73,0,0,1-4.65,1.46q-3.06,0-5.47-3.43c-2-2.8-4-4.63-6-5.48a2.12,2.12,0,0,1,1.53-.63c.77,0,2.06.59,3.88,1.78s3,1.78,3.51,1.78,1.12-.59,2.1-1.78a4.16,4.16,0,0,1,3.24-1.78Q58.61,23.85,58.61,28.3Z"/></svg>