<svg id="Layer_1" data-name="Layer 1" xmlns="http://www.w3.org/2000/svg" viewBox="0 0 100 100"><defs><style>.cls-1{fill:#9cc497;}.cls-2{fill:#f8a076;}.cls-3{fill:#04070e;}</style></defs><path class="cls-1" d="M85.35,14.64a50,50,0,1,1-70.7,70.71"/><path class="cls-2" d="M14.65,85.35a50,50,0,0,1,70.7-70.71"/><path class="cls-3" d="M51.94,38.08q-2.58,6.15-10.24,6.14a14.87,14.87,0,0,0-3.05.35c-1.64.35-2.45.84-2.45,1.47a1,1,0,0,0,.4.67,1.18,1.18,0,0,0,.71.38q-1.47,0,2,.09c2.31.06,3.75.09,4.34.09q-5.1,3-17,2.74a8.59,8.59,0,0,1-6.73-3.45,10.75,10.75,0,0,1-2.75-7.19A9.94,9.94,0,0,1,20,32.2a9.38,9.38,0,0,1,7.05-3,10.41,10.41,0,0,1,2.48.41,9.93,9.93,0,0,0,2.08.41A11.75,11.75,0,0,0,37,28.28a24.19,24.19,0,0,0,3-1.79q-.59,6.15-4.1,8.25c-1.68,1-2.51,1.93-2.51,2.87a1.59,1.59,0,0,0,1,1.41,3.58,3.58,0,0,0,4.8-1.47,4.79,4.79,0,0,0,1.28-3.39A16.73,16.73,0,0,1,40.76,30a4.46,4.46,0,0,1,.85-1.73A3.63,3.63,0,0,1,42.92,27a6.56,6.56,0,0,1-.38,1.75,7.11,7.11,0,0,0-.38,1.82,2.69,2.69,0,0,0,.71,2c.7-.27,1.32-1.15,1.87-2.63a10.74,10.74,0,0,0,.82-3.28,7.38,7.38,0,0,1-4.71-2.23,6.16,6.16,0,0,1-2.26-4.56,3,3,0,0,1,.12-.82l1.06,1.64c.66,1,1.17,1.46,1.52,1.46s.7-.49.7-1.46a6,6,0,0,0-1-3.39,3.3,3.3,0,0,0-2.86-1.82,5.91,5.91,0,0,0-2.46.88,6.49,6.49,0,0,1-3,.88,26.81,26.81,0,0,1-3.63-1.06c3.78-.62,5.67-1.19,5.67-1.69q0-2-7.78-2.69l-2.81-.24c.16-.19,1.27-.41,3.34-.64,1.75-.2,3-.3,3.68-.3q13.94,0,17.67,13.52a2.18,2.18,0,0,0,.65-1.78,11.65,11.65,0,0,0-.94-4q-.34-.95-1.11-2.85,4.8,6.12,4.8,11.59a10.32,10.32,0,0,1-1.35,5.23,21.29,21.29,0,0,1-3.27,4.06,28.05,28.05,0,0,0-3.28,3.82,32.94,32.94,0,0,0,4.21-1.35,12.27,12.27,0,0,0,4-3A6.81,6.81,0,0,1,51.94,38.08Zm-25.52-23a1.33,1.33,0,0,1-1.17,1.35l-1.52.23c-.55.27-1.35,1.35-2.4,3.22-.12-.59-.29-1.41-.53-2.46a4.75,4.75,0,0,0-1.75.94c-.35.27-.92.68-1.7,1.23a8.66,8.66,0,0,1,2.34-4.28c1.41-1.59,2.77-2.39,4.1-2.39C25.54,12.92,26.42,13.64,26.42,15.08ZM36.6,20.46a2,2,0,0,1-1.08,1.67,4,4,0,0,1-2.13.68,3.11,3.11,0,0,1-2.52-1.59,6.8,6.8,0,0,0-2.75-2.51.93.93,0,0,1,.7-.29,4.14,4.14,0,0,1,1.79.82,4.52,4.52,0,0,0,1.61.81q.28,0,1-.81a1.92,1.92,0,0,1,1.49-.82C36,18.42,36.6,19.1,36.6,20.46Z"/><path class="cls-3" d="M89.52,67.62a2.85,2.85,0,0,1-.88,2,2.73,2.73,0,0,1-2,.91A2.81,2.81,0,0,1,84,68.87l-2.67-.12a15.19,15.19,0,0,0-3.34.74,8.78,8.78,0,0,0-3.07,1.19,6.9,6.9,0,0,0-1,3.18,19.94,19.94,0,0,0-.34,3A4.07,4.07,0,0,0,74,79.1a3.65,3.65,0,0,0,2,1.19,18.72,18.72,0,0,0,1.84.54,6.38,6.38,0,0,0,.74,0h.68a5.72,5.72,0,0,1,1.54.22c.75.23,1.07.53,1,.91a9.22,9.22,0,0,0-2.78.34l1.59.79c0,.46-.64.68-1.93.68a5.87,5.87,0,0,1-1.39-.22,5.6,5.6,0,0,0-1.16-.23h-.74A13.4,13.4,0,0,1,75,85a4.2,4.2,0,0,1-2.27-1.13,4.65,4.65,0,0,0-1.64-1.08c-.23,0-.55.36-1,1.08a4,4,0,0,0-.62,1.47,3.06,3.06,0,0,1-1.25-1.47c-.15-.5-.32-1-.51-1.48-.38,0-1.08.84-2.1,2.39h-.28c-.08-.12-.36-.91-.85-2.39a11,11,0,0,0-3.29-.56,11.43,11.43,0,0,0-2.27.34L57.36,82a12.7,12.7,0,0,1,2-1.31,6.6,6.6,0,0,1,2.95-1.14,2.32,2.32,0,0,1,.45.06,2.32,2.32,0,0,0,.45.06,3.38,3.38,0,0,0,1.28-.43c.59-.28.93-.54,1-.76a6.11,6.11,0,0,0,.14-1.76,6.3,6.3,0,0,0-1.7-4.82,9.38,9.38,0,0,0-4.88-2q-.9,3.23-5.1,3.23a3.7,3.7,0,0,1-2.72-1.64,4.91,4.91,0,0,1-1.36-3A4.2,4.2,0,0,1,51.63,65a4.36,4.36,0,0,1-1.41-3,3.86,3.86,0,0,1,.87-2.49,3.42,3.42,0,0,1,2.3-1.25,2.39,2.39,0,0,1,1.19-2.5A3.1,3.1,0,0,1,54,53.55a4.26,4.26,0,0,1,4.36-4.36,4.35,4.35,0,0,1,3.35,1.41Q63.32,45,68.76,45a6.71,6.71,0,0,1,5,2.27,7.2,7.2,0,0,1,.79.91c-.45,0-.22-.09.68-.26a12.34,12.34,0,0,1,2-.26,5.49,5.49,0,0,1,3.92,1.65,7.89,7.89,0,0,1,2,3.74,8.14,8.14,0,0,1,1.24.34,2.21,2.21,0,0,1,1.25,2.16,2.92,2.92,0,0,1-.45,1.08q3.63,2,3.63,5.67a7.73,7.73,0,0,1-.8,2.83A2.72,2.72,0,0,1,89.52,67.62ZM66.15,70.11v-.73A3.08,3.08,0,0,0,64.88,67a4,4,0,0,0-2.58-1.08,6.08,6.08,0,0,0-2.95.73Q62.35,66.49,66.15,70.11Zm-1-7a13.33,13.33,0,0,1-1.47-2c-1.59.41-2.39.89-2.39,1.41a7.1,7.1,0,0,1,2,.26A9.06,9.06,0,0,0,65.13,63.08Zm3.46-1.76V58.83c-.91-.15-1.46-.23-1.64-.23v.85ZM76,59.74q-.67-.29-2.55-1.14v4.88Q76.08,62,76,59.74Zm3.12,6.69L77.83,64.9l-2.29,1.61a10.21,10.21,0,0,0-2,1.85A19.21,19.21,0,0,1,79.08,66.43Z"/></svg>