<svg id="Layer_1" data-name="Layer 1" xmlns="http://www.w3.org/2000/svg" viewBox="0 0 100 100"><defs><style>.cls-1{fill:#f8a076;}.cls-2{fill:#0b0e12;}</style></defs><circle class="cls-1" cx="50" cy="50" r="50"/><path class="cls-2" d="M77.56,49.92a23.7,23.7,0,0,0-5-14.92C71,33.23,69.67,31.21,68,29.54c-3.75-3.73-9.37-4-13.9-6.33-.26-2.35-1.12-4.71-.6-7.09a3.28,3.28,0,0,0,0-2.35c-1.18-2.73-.16-5.69-.38-8.54C52.9,3.74,53,1.92,51.58,1c-.33,3.1-1.47,6-2.39,8.92-.43,2.29-.43,4.67-1.41,6.83.62,2.19-.62,4-2,5.65-3,1.52-6.5,1.88-9.08,4.11a47.9,47.9,0,0,1-5.88,4.2c-1.55,1.94-3.26,3.8-3.95,6.24-2.76,3.34-3.09,7.81-4.65,11.72,0,5.8,1.14,12,4.85,16.69,2.65,2.19,4.5,5.13,7.14,7.32,2.54,1.52,5.26,2.76,7.88,4.13,1.71.4,3.47.59,5.17,1.06C48.68,85,49.63,92.26,52.4,99c.92-2.77.8-5.74,1.6-8.53,1.12-4.14-1.18-8.44.11-12.5,1.94-1.74,5.17-.61,7.32-2.1,4.1-2.52,8.43-5,11.39-8.84,1.11-2.22,3.43-3.87,3.43-6.54C76.27,56.91,78.36,53.55,77.56,49.92ZM47.19,71.86A24.64,24.64,0,0,1,39,68c-2.67-1.78-3.67-5.11-6.31-6.93-2.47-2.95-1.94-7-2.95-10.47.41-2.44.88-4.86,1.14-7.33,1.2-2,3.07-3.51,3.58-5.87,1.77-2.53,4.46-4.28,6.62-6.48,1.57-1.81,4.07-1,6.14-1.12a17.26,17.26,0,0,0,.13,6,10.52,10.52,0,0,1,.6,3.68c-.41,2.7.6,5.41-.11,8.07-1.45,5.58.13,11.21.26,16.84A52.2,52.2,0,0,1,47.19,71.86ZM69.67,61.29a45.87,45.87,0,0,0-5.36,4.78c-3,2.06-5.92,4.24-9.46,5.27.32-2.53.63-5.13-.18-7.61-2-5.59.45-11.44.86-17.1-.36-3.36,0-7-1.56-10.05-.2-2.33.8-4.57,1.49-6.76A24,24,0,0,1,62,33.64c2.36,1.76,6,2.91,6.49,6.2C68.71,42,71.07,43.3,71,45.52,70.85,50.77,71.58,56.27,69.67,61.29Z"/></svg>