<svg id="Layer_1" data-name="Layer 1" xmlns="http://www.w3.org/2000/svg" viewBox="0 0 100 100"><defs><style>.cls-1{fill:#f8f6da;}.cls-2{fill:#f8a076;}.cls-3{fill:#04070e;}</style></defs><path class="cls-1" d="M85.35,14.64a50,50,0,1,1-70.7,70.71"/><path class="cls-2" d="M14.65,85.35a50,50,0,0,1,70.7-70.71"/><path class="cls-3" d="M88,73.11c-2.44-2.26-4-3.49-4.85-3.68-.57-.14-1.13.2-1.67,1a2,2,0,0,1-2.27.85,14,14,0,0,1-2.33-1A5.86,5.86,0,0,0,75.37,72a2.24,2.24,0,0,0,.55,1.62,2.56,2.56,0,0,0,1.3,1.17,5.09,5.09,0,0,0,1.09.09,4.74,4.74,0,0,1,.93,0c.44.1.47,1,.07,2.59a37,37,0,0,1-2.79,6.9q-.09-5.86-1.65-6.24a2.76,2.76,0,0,0-1,.11,2.73,2.73,0,0,1-1.08.08q-1.56-.37-2.13-3.54c-1.72-.15-2.75.5-3.1,1.95a2,2,0,0,0,.59,2c.56.59.82,1,.78,1.16-.23,1-2,2.13-5.36,3.47-1.77.73-3,1.23-3.68,1.53A14.8,14.8,0,0,0,62,82.77a7.11,7.11,0,0,0,1.53-2.56c.09-.36-.21-1-.88-1.82A2.72,2.72,0,0,1,61.93,76a5.51,5.51,0,0,1,1.19-2.12,2.21,2.21,0,0,0-1.49-1.22c-1.44-.34-2.27,0-2.5.89.16-.65,0-.16-.35,1.46-.25,1.2-1.29,1.58-3.14,1.14a42.71,42.71,0,0,1-6.86-2.67q6-.06,6.41-1.9a8.19,8.19,0,0,1,.1-1.35c.12-1.16,1.16-2,3.11-2.47.07-1.74-.6-2.77-2-3.11-.21,0-.7.23-1.46.85a2.37,2.37,0,0,1-1.9.75c-.87-.21-1.76-1.41-2.68-3.62-.43-1.1-1.09-2.72-2-4.89l2.18,1.9A6.71,6.71,0,0,0,53,61.06c.51.12,1.11-.2,1.81-1A2.24,2.24,0,0,1,57,59.22q.16,0,2,1.17a5.17,5.17,0,0,0,1.59-2.08,2.46,2.46,0,0,0-.43-1.68A2.2,2.2,0,0,0,59,55.45a3.59,3.59,0,0,0-.88,0,3.55,3.55,0,0,1-.88,0q-1-.23-.39-2.67c.1-.43,1.11-2.81,3-7.12a9.86,9.86,0,0,0,0,3.2c.18,1.95.69,3,1.52,3.23a2.9,2.9,0,0,0,.94-.12,2.66,2.66,0,0,1,1.11-.08,2.44,2.44,0,0,1,1.72,1.9l.46,1.66A2.56,2.56,0,0,0,67.64,55a2.82,2.82,0,0,0,1.23-1.77,2.06,2.06,0,0,0-.57-2.05c-.57-.58-.83-1-.77-1.19q.27-1.14,4.49-3a26.6,26.6,0,0,1,4.35-1.65c-2.05,1.72-3.2,3.07-3.43,4a2.44,2.44,0,0,0,.53,1.85,5.68,5.68,0,0,1,1,1.77,5.28,5.28,0,0,1-.92,3.39,4.64,4.64,0,0,0,2,1.56,1.45,1.45,0,0,0,2-1.25c0-.11.06-.46.11-1.06a3.7,3.7,0,0,1,.15-1c.27-.47,1.32-.48,3.16,0a54.08,54.08,0,0,1,7,2.7L84,57.44c-1.55.09-2.39.4-2.52.94a5.86,5.86,0,0,0,0,1.37,5.79,5.79,0,0,1,0,1.42c-.12.5-.56.89-1.31,1.17l-2.16.86a9.59,9.59,0,0,0,.53,1.62,1.86,1.86,0,0,0,1.31,1c.43.1.92-.18,1.46-.86a1.86,1.86,0,0,1,2-.72c1,.24,1.86,1.4,2.66,3.5Q86.57,69.51,88,73.11Zm-11.27-6a9,9,0,0,0-6.52-10.61A9,9,0,0,0,59.5,63a8,8,0,0,0,1.14,6.6,8.77,8.77,0,0,0,5.49,4,8.67,8.67,0,0,0,6.72-.94A8.26,8.26,0,0,0,76.73,67.09Zm-.82-.19a7.53,7.53,0,0,1-3.53,4.94,8.22,8.22,0,0,1-11-2.69A7.74,7.74,0,0,1,64,58.35,7.89,7.89,0,0,1,74.89,61,7.54,7.54,0,0,1,75.91,66.9Z"/><path class="cls-3" d="M51.94,38.08q-2.58,6.15-10.24,6.14a14.87,14.87,0,0,0-3.05.35c-1.64.35-2.45.84-2.45,1.47a1,1,0,0,0,.4.67,1.18,1.18,0,0,0,.71.38q-1.47,0,2,.09c2.31.06,3.75.09,4.34.09q-5.1,3-17,2.74a8.59,8.59,0,0,1-6.73-3.45,10.75,10.75,0,0,1-2.75-7.19A9.94,9.94,0,0,1,20,32.2a9.38,9.38,0,0,1,7.05-3,10.41,10.41,0,0,1,2.48.41,9.93,9.93,0,0,0,2.08.41A11.75,11.75,0,0,0,37,28.28a24.19,24.19,0,0,0,3-1.79q-.59,6.15-4.1,8.25c-1.68,1-2.51,1.93-2.51,2.87a1.59,1.59,0,0,0,1,1.41,3.58,3.58,0,0,0,4.8-1.47,4.79,4.79,0,0,0,1.28-3.39A16.73,16.73,0,0,1,40.76,30a4.46,4.46,0,0,1,.85-1.73A3.63,3.63,0,0,1,42.92,27a6.56,6.56,0,0,1-.38,1.75,7.11,7.11,0,0,0-.38,1.82,2.69,2.69,0,0,0,.71,2c.7-.27,1.32-1.15,1.87-2.63a10.74,10.74,0,0,0,.82-3.28,7.38,7.38,0,0,1-4.71-2.23,6.16,6.16,0,0,1-2.26-4.56,3,3,0,0,1,.12-.82l1.06,1.64c.66,1,1.17,1.46,1.52,1.46s.7-.49.7-1.46a6,6,0,0,0-1-3.39,3.3,3.3,0,0,0-2.86-1.82,5.91,5.91,0,0,0-2.46.88,6.49,6.49,0,0,1-3,.88,26.81,26.81,0,0,1-3.63-1.06c3.78-.62,5.67-1.19,5.67-1.69q0-2-7.78-2.69l-2.81-.24c.16-.19,1.27-.41,3.34-.64,1.75-.2,3-.3,3.68-.3q13.94,0,17.67,13.52a2.18,2.18,0,0,0,.65-1.78,11.65,11.65,0,0,0-.94-4q-.34-.95-1.11-2.85,4.8,6.12,4.8,11.59a10.32,10.32,0,0,1-1.35,5.23,21.29,21.29,0,0,1-3.27,4.06,28.05,28.05,0,0,0-3.28,3.82,32.94,32.94,0,0,0,4.21-1.35,12.27,12.27,0,0,0,4-3A6.81,6.81,0,0,1,51.94,38.08Zm-25.52-23a1.33,1.33,0,0,1-1.17,1.35l-1.52.23c-.55.27-1.35,1.35-2.4,3.22-.12-.59-.29-1.41-.53-2.46a4.75,4.75,0,0,0-1.75.94c-.35.27-.92.68-1.7,1.23a8.66,8.66,0,0,1,2.34-4.28c1.41-1.59,2.77-2.39,4.1-2.39C25.54,12.92,26.42,13.64,26.42,15.08ZM36.6,20.46a2,2,0,0,1-1.08,1.67,4,4,0,0,1-2.13.68,3.11,3.11,0,0,1-2.52-1.59,6.8,6.8,0,0,0-2.75-2.51.93.93,0,0,1,.7-.29,4.14,4.14,0,0,1,1.79.82,4.52,4.52,0,0,0,1.61.81q.28,0,1-.81a1.92,1.92,0,0,1,1.49-.82C36,18.42,36.6,19.1,36.6,20.46Z"/></svg>