<svg id="Layer_1" data-name="Layer 1" xmlns="http://www.w3.org/2000/svg" viewBox="0 0 100 100"><defs><style>.cls-1{fill:#cfc9c2;}.cls-2{fill:#04070e;}.cls-3{fill:#fff;}</style></defs><path class="cls-1" d="M50,100A50,50,0,1,0,0,50,50,50,0,0,0,50,100Z"/><polygon class="cls-2" points="37.84 89.16 40.2 85.08 50 98.88 59.8 85.08 62.16 89.16 66.5 89.21 75 93.3 75.71 83.89 77.83 80.11 75.48 76.03 92.33 74.44 85.28 59.05 89.99 59.05 92.2 55.32 100 50 92.2 44.68 89.99 40.95 85.28 40.95 92.33 25.56 75.48 23.97 77.83 19.89 75.71 16.11 75 6.7 66.5 10.79 62.16 10.84 59.8 14.92 50 1.12 40.2 14.92 37.84 10.84 33.51 10.79 25 6.7 24.29 16.11 22.17 19.89 24.52 23.97 7.67 25.56 14.72 40.95 10.01 40.95 7.8 44.68 0 50 7.8 55.32 10.01 59.05 14.72 59.05 7.67 74.44 24.52 76.03 22.17 80.11 24.29 83.89 25 93.3 33.51 89.21 37.84 89.16"/><polygon class="cls-3" points="34.89 80.21 50 55.87 65.11 80.21 65.11 84.26 68.61 86.28 72.12 84.26 72.12 80.21 68.61 78.19 55.09 52.94 83.72 52.02 87.22 54.05 90.73 52.02 90.73 47.98 87.22 45.95 83.72 47.98 55.09 47.06 68.61 21.81 72.12 19.79 72.12 15.74 68.61 13.72 65.11 15.74 65.11 19.79 50 44.13 34.9 19.79 34.89 15.74 31.39 13.72 27.89 15.74 27.89 19.79 31.39 21.81 44.91 47.06 16.29 47.98 12.78 45.95 9.28 47.98 9.28 52.02 12.78 54.05 16.29 52.02 44.91 52.94 31.39 78.19 27.89 80.21 27.88 84.26 31.39 86.28 34.89 84.26 34.89 80.21"/><polygon class="cls-3" points="57.05 22.39 50 34.68 42.95 22.39 50 10.11 57.05 22.39"/><polygon class="cls-3" points="29.62 30.09 36.73 42.34 22.57 42.3 15.45 30.05 29.62 30.09"/><polygon class="cls-3" points="22.57 57.7 36.73 57.66 29.62 69.91 15.45 69.95 22.57 57.7"/><polygon class="cls-3" points="42.95 77.61 50 65.32 57.05 77.61 50 89.9 42.95 77.61"/><polygon class="cls-3" points="70.38 69.91 63.27 57.66 77.43 57.7 84.55 69.95 70.38 69.91"/><polygon class="cls-3" points="77.44 42.3 63.27 42.34 70.39 30.09 84.55 30.05 77.44 42.3"/></svg>