<svg id="Layer_1" data-name="Layer 1" xmlns="http://www.w3.org/2000/svg" viewBox="0 0 100 100"><defs><style>.cls-1{fill:#d0cac3;}.cls-2{fill:#04070e;}</style></defs><path class="cls-1" d="M100,50A50,50,0,1,1,50,0,50,50,0,0,1,100,50Z"/><path class="cls-2" d="M85.33,58.92h-36l13.18-9.38a26.53,26.53,0,0,0-17-5.83c-3.21,0-5.42.61-6.59,1.83S37.16,49,37.16,52.2q0,13.3,13.69,28.39L40.46,91.12Q22.33,69.05,22.33,51.69q0-10.38,6.27-16.54C32.78,31.05,38.35,29,45.27,29q12.67,0,27.64,9.63l7.73-13.18Z"/></svg>