<svg id="Layer_1" data-name="Layer 1" xmlns="http://www.w3.org/2000/svg" viewBox="0 0 100 100"><defs><style>.cls-1{fill:#cfc9c2;}.cls-2{fill:#04070e;}</style></defs><circle class="cls-1" cx="49.88" cy="50.07" r="50"/><path class="cls-2" d="M94.65,55.92,84.08,68.64l-2.59-2.58a29.1,29.1,0,0,0,1.91-7,15.68,15.68,0,0,0-.33-5.93,3.57,3.57,0,0,0-.18-.68,3.71,3.71,0,0,0-.25-.61,11.25,11.25,0,0,0-1.72-3.24,38.37,38.37,0,0,0-3.31-3.67l-7.55-7.69L35,72.31q-4.59,4.6-5,8t3.31,7l1,.86-2.74,2.74-23-23,2.73-2.73,1.15,1.15q3.6,3.73,7,3.38t7.91-4.89L62.51,29.67l-7.84-7.84A27.82,27.82,0,0,0,49,17.41a9.83,9.83,0,0,0-5.43-1.05c-.28,0-.59,0-.9,0s-.63.06-1,.11a11.92,11.92,0,0,0-1.65.21c-.48.1-.94.17-1.37.22a2.24,2.24,0,0,1-.39.1,2.05,2.05,0,0,1-.47,0l-1.8.5c-.67.19-1.51.41-2.52.65l-2.37-2.52L43.59,4.86Z"/></svg>