<svg id="Layer_1" data-name="Layer 1" xmlns="http://www.w3.org/2000/svg" viewBox="0 0 100 100"><defs><style>.cls-1{fill:#cfc9c2;}.cls-2{fill:#04070e;}.cls-3{fill:#fff;}</style></defs><path class="cls-1" d="M50,.14a50,50,0,1,1-50,50A50,50,0,0,1,50,.14Z"/><path class="cls-2" d="M49.39,94.53a8.3,8.3,0,0,1-11.74,0l-32-32a8.3,8.3,0,0,1,0-11.74l45-45a8.3,8.3,0,0,1,11.74,0L94.4,37.79a8.3,8.3,0,0,1,0,11.74Z"/><path class="cls-3" d="M84.27,58h-36l13.18-9.38a26.51,26.51,0,0,0-17-5.83q-4.82,0-6.59,1.83c-1.18,1.23-1.78,3.45-1.78,6.66q0,13.31,13.69,28.4L39.39,90.21Q21.26,68.15,21.27,50.78q0-10.38,6.26-16.54c4.18-4.1,9.75-6.15,16.67-6.15q12.67,0,27.64,9.63l7.73-13.18Z"/></svg>