<svg id="Layer_1" data-name="Layer 1" xmlns="http://www.w3.org/2000/svg" viewBox="0 0 100 100"><defs><style>.cls-1{fill:#bcd9e8;}.cls-2{fill:#04070e;}</style></defs><circle class="cls-1" cx="50" cy="50" r="50"/><path class="cls-2" d="M67.49,83.72A23.85,23.85,0,0,1,49.8,91Q38,91,31.09,83q-6.54-7.7-6.54-19.61,0-12.81,11.15-29.22A110.48,110.48,0,0,1,57.11,10.54a63.27,63.27,0,0,0-1.8,11.66,27.82,27.82,0,0,0,5,15.51q6.15,9,9.36,13.33,5,7.56,5,14.74A24.63,24.63,0,0,1,67.49,83.72Zm-.13-27.36q-1.92-4.29-4.49-5.71a4.94,4.94,0,0,1,.39,2.18,28.27,28.27,0,0,1-1.54,7.69l-1.67,5.13q0,4.48,4.49,4.49c3.16,0,4.74-2.1,4.74-6.28A18.84,18.84,0,0,0,67.36,56.36Z"/></svg>