<svg id="Layer_1" data-name="Layer 1" xmlns="http://www.w3.org/2000/svg" viewBox="0 0 100 100"><defs><style>.cls-1{fill:#f8f6da;}.cls-2{fill:#04070e;}</style></defs><circle class="cls-1" cx="50" cy="50" r="50"/><path class="cls-2" d="M97.69,57.06q-9.84-5.54-12.62-5.55c-1.34,0-2.39,1-3.15,3.1a4.42,4.42,0,0,1-4.54,3.09,32.18,32.18,0,0,1-5.68-1c-1.6,2.44-2.4,4-2.4,4.67,0,.92.69,2,2.07,3.28s2.53,1.89,3.48,1.89a11.12,11.12,0,0,0,2.45-.38,11.33,11.33,0,0,1,2.06-.38c1,0,1.55,1.89,1.55,5.68q0,5.43-2.52,16.65-3.28-12.87-6.94-12.87a6.43,6.43,0,0,0-2.08.76,6.38,6.38,0,0,1-2.34.76q-3.66,0-6.56-6.69-5.8.89-5.8,5.93A4.62,4.62,0,0,0,57,80c1.56,1,2.34,1.72,2.34,2.14q0,3.42-10,10.47-5.29,3.8-7.32,5.3A33.79,33.79,0,0,0,45.59,92c1.34-2.77,2-4.92,2-6.43,0-.84-1-2-2.9-3.54s-2.9-3.11-2.9-4.79A12.84,12.84,0,0,1,43.31,72a5,5,0,0,0-3.91-1.89q-5,0-5,3.28v3.41q.12,4.16-6.31,4.16-4.92,0-16.53-2.27,13.13-3.28,13.12-7.57a15.48,15.48,0,0,1-.5-3q-.51-3.9,5.55-7.06-1.14-5.8-6.06-5.81c-.5,0-1.43.88-2.77,2.65s-2.61,2.65-3.79,2.65q-3,0-7.82-6.56Q7,50.64,2.31,44.2c1.93,1,3.87,2,5.8,3A15.56,15.56,0,0,0,14.17,49c1.18,0,2.33-1,3.47-3.09s2.63-3.09,4.48-3.09a51.21,51.21,0,0,1,5,1.51c1.6-2.44,2.4-4.24,2.4-5.42a5.49,5.49,0,0,0-1.83-3.47c-1.22-1.31-2.33-2-3.34-2a8.24,8.24,0,0,0-2,.38,8.09,8.09,0,0,1-1.95.38c-1.52,0-2.27-1.89-2.27-5.68q0-1.52,2.9-17.28-.13,1.89,1.64,7.06,2.14,6.32,5.05,6.31a6,6,0,0,0,2-.76,5.9,5.9,0,0,1,2.4-.75q2.9,0,4.8,3.28l1.89,3.4a5.78,5.78,0,0,0,4.41-1.89,6.42,6.42,0,0,0,1.77-4.54,4.7,4.7,0,0,0-2.33-4.23c-1.56-1-2.34-1.7-2.34-2.2q0-2.65,8.33-9,6.69-5.05,8.71-5.93Q52,9.38,52,12.78c0,1.18.71,2.44,2.14,3.79a12.31,12.31,0,0,1,3,3.4q1.26,2.91-.25,8,3.41,2.4,5.17,2.4c2.44,0,3.66-1.27,3.66-3.79,0-.25-.1-1.05-.31-2.39a7,7,0,0,1-.19-2.27c.33-1.18,2.65-1.77,6.94-1.77q4,0,16.78,2.27l-8.33,2.27q-5.05,1.51-5,3.41a12.64,12.64,0,0,0,.63,3,12.85,12.85,0,0,1,.64,3.16c0,1.18-.76,2.27-2.28,3.28l-4.29,3a20.13,20.13,0,0,0,2,3.28,4.2,4.2,0,0,0,3.41,1.51c1,0,1.93-.88,2.77-2.65a4.22,4.22,0,0,1,4-2.65q3.4,0,7.7,6.31Q92.64,49.88,97.69,57.06Zm-28-7.31a19.15,19.15,0,0,0-5.93-14,19.15,19.15,0,0,0-14-5.93,19.39,19.39,0,0,0-14.13,5.87,19.5,19.5,0,0,0-6.06,14.07,18.25,18.25,0,0,0,6,13.94,19.91,19.91,0,0,0,14.2,5.87,19.68,19.68,0,0,0,14.32-5.62A18.6,18.6,0,0,0,69.68,49.75Zm-1.89,0a17,17,0,0,1-5.17,12.74,17.68,17.68,0,0,1-12.87,5.05A17.58,17.58,0,0,1,37,62.36a16.91,16.91,0,0,1-5.3-12.61A16.88,16.88,0,0,1,37.07,37.2a17.89,17.89,0,0,1,25.36.06A17,17,0,0,1,67.79,49.75Z"/></svg>