<svg id="Layer_1" data-name="Layer 1" xmlns="http://www.w3.org/2000/svg" viewBox="0 0 100 100"><defs><style>.cls-1{fill:#f7f4d9;}.Graphic-Style-1{fill:#04070e;}.cls-2{fill:none;stroke:#f7f4d9;stroke-miterlimit:10;stroke-width:2.5px;}</style></defs><circle class="cls-1" cx="50" cy="50.07" r="50"/><path class="Graphic-Style-1" d="M34.56,77.88A3.84,3.84,0,0,1,41.22,80c.36,2.41,1,10.11,1.81,13.35.43,1.71,1.26,3.15,2.34,3.22C47.29,96.71,52,92.84,53,91a58.22,58.22,0,0,0,4.27-10.78c.48-1.53,2.1-1.6,3-.12a112.28,112.28,0,0,0,7.62,10.79c.72.89,1.59.79,1.79-.63a82.84,82.84,0,0,1,3.86-16.65c.67-1.81,2.56-2,4-1.11a32.84,32.84,0,0,0,4.55,2.16,5.28,5.28,0,0,0,5.48-1c1.72-1.28,1.85-2.53,1-3.9-1.85-2.82-4.36-5-6.37-7.91-1.11-1.61-1-2.75.4-3.59a75.92,75.92,0,0,0,9.65-7,6.1,6.1,0,0,0,2.07-4.38c.35-3.17.56-4.75-.83-5.15s-2.2.59-8,2.09c-1.37.35-3,.57-3.51-.17s-.18-2.2,1-3.51a61.17,61.17,0,0,0,5.9-7c.86-1.3,1.93-3.42,1.08-4.68s-3.29-.62-4.41-.13A31.42,31.42,0,0,1,79.05,30c-2.42.35-4.23.26-5-.52s-.86-2.34-.15-4.16a17.39,17.39,0,0,1,4.53-6.45c1.39-1.16,1.27-1.84.2-2.75-.86-.72-3.48-1.22-5.47-.61a26.7,26.7,0,0,0-8.33,4.31,6.94,6.94,0,0,1-5,1.38,3.84,3.84,0,0,1-3-3.36c-.8-4.66-1.85-9.36-3-12-.72-1.61-1.27-2.2-2.26-2.19s-1.57.78-2.4,2.37c-1.32,2.53-2.68,7.62-3.69,11.81-.6,2.44-1.68,3.4-3.61,4.56-1.07.65-2.09.22-2.64-1.14s-2.47-5.93-3.09-7.8c-.4-1.22-.9-1.29-1.7-.13a99.92,99.92,0,0,0-6.13,10.48c-.78,1.63-.94,3.16.07,4.19,1.36,1.38,1.88,2.07,1.11,2.87-.54.55-2.91.18-5.52-.41a14.58,14.58,0,0,0-7.34,0c-2.21.7-3.63,1.83-3.85,3.28-.17,1.16,2.11,4.43,3.45,5.55a3.73,3.73,0,0,1,1.54,2.24,7.09,7.09,0,0,1-.83,4.62c-.44.65-1.83.67-4.62.83C6,47.37,3.3,48.57,3,53,2.76,56.2,5.08,58.1,8.6,57.26a10.06,10.06,0,0,1,4.74-.15c1.71.36,4.82,1.27,4.84,2.94,0,2.07-3.22,2.55-6.35,3.71-1.24.46-.92,1.67.14,1.85s12.75,3.26,14.94,6c1.22,1.49-.17,4.78-1,6.69s-.39,7.36.33,7.54S28.73,84.26,29.9,83C31.39,81.47,33,79.68,34.56,77.88Z"/><path class="cls-2" d="M69.89,50.07A19.89,19.89,0,1,1,50,30.19,19.89,19.89,0,0,1,69.89,50.07Z"/></svg>