<svg id="Layer_1" data-name="Layer 1" xmlns="http://www.w3.org/2000/svg" viewBox="0 0 100 100"><defs><style>.cls-1{fill:#f8f6da;}.cls-2{fill:#0b0e12;}</style></defs><circle class="cls-1" cx="50" cy="50" r="50"/><path class="cls-2" d="M77.56,49.92A23.75,23.75,0,0,0,72.6,35C71,33.23,69.67,31.21,68,29.54c-3.75-3.73-9.37-4-13.89-6.33-.27-2.35-1.13-4.71-.61-7.09a3.23,3.23,0,0,0,0-2.35c-1.18-2.73-.16-5.69-.37-8.54C52.9,3.74,53,1.92,51.58,1c-.33,3.1-1.47,6-2.39,8.92-.42,2.29-.42,4.67-1.41,6.83.62,2.19-.62,4-2,5.65-3,1.52-6.49,1.88-9.07,4.11a48.79,48.79,0,0,1-5.89,4.2c-1.55,1.94-3.26,3.8-3.95,6.24-2.76,3.34-3.08,7.81-4.65,11.72,0,5.8,1.14,12,4.85,16.69,2.65,2.19,4.5,5.13,7.15,7.32,2.54,1.52,5.25,2.76,7.87,4.13,1.71.4,3.48.59,5.18,1.06C48.69,85,49.63,92.26,52.4,99c.92-2.77.81-5.74,1.6-8.53,1.12-4.14-1.18-8.44.12-12.5,1.93-1.74,5.17-.61,7.32-2.1,4.09-2.52,8.42-5,11.39-8.84,1.1-2.22,3.42-3.87,3.42-6.54C76.27,56.91,78.36,53.55,77.56,49.92ZM47.19,71.86A24.59,24.59,0,0,1,39,68c-2.68-1.78-3.68-5.11-6.32-6.93-2.47-2.95-1.93-7-2.95-10.47.41-2.44.89-4.86,1.14-7.33,1.21-2,3.07-3.51,3.58-5.87,1.77-2.53,4.46-4.28,6.62-6.48,1.57-1.81,4.08-1,6.14-1.12a17.5,17.5,0,0,0,.13,6,10.77,10.77,0,0,1,.61,3.68c-.42,2.7.59,5.41-.12,8.07-1.44,5.58.13,11.21.27,16.84A52.22,52.22,0,0,1,47.19,71.86ZM69.67,61.29a45,45,0,0,0-5.35,4.78c-3,2.06-5.93,4.24-9.47,5.27.32-2.53.63-5.13-.18-7.61-2-5.59.45-11.44.86-17.1-.36-3.36,0-7-1.56-10.05-.2-2.33.81-4.57,1.49-6.76A24,24,0,0,1,62,33.64c2.36,1.76,6,2.91,6.49,6.2C68.71,42,71.08,43.3,71,45.52,70.86,50.77,71.58,56.27,69.67,61.29Z"/></svg>