<svg id="Layer_1" data-name="Layer 1" xmlns="http://www.w3.org/2000/svg" viewBox="0 0 100 100"><defs><style>.cls-1{fill:#bcd9e8;}.cls-2{fill:#f8f6da;}.cls-3{fill:#04070e;}</style></defs><path class="cls-1" d="M85.35,14.64a50,50,0,1,1-70.7,70.71"/><path class="cls-2" d="M14.65,85.35a50,50,0,0,1,70.7-70.71"/><path class="cls-3" d="M76.72,83.67a13.39,13.39,0,0,1-9.94,4.11,13.14,13.14,0,0,1-10.53-4.54,16.41,16.41,0,0,1-3.67-11q0-7.2,6.27-16.43a62.13,62.13,0,0,1,12-13.26,35.82,35.82,0,0,0-1,6.56,15.61,15.61,0,0,0,2.82,8.72q3.45,5,5.26,7.49a15.09,15.09,0,0,1,2.81,8.29A13.83,13.83,0,0,1,76.72,83.67Zm-.07-15.38a6.55,6.55,0,0,0-2.52-3.21,2.88,2.88,0,0,1,.21,1.22,15.84,15.84,0,0,1-.86,4.33l-.94,2.88A2.23,2.23,0,0,0,75.06,76q2.67,0,2.67-3.54A10.58,10.58,0,0,0,76.65,68.29Z"/><path class="cls-3" d="M54.67,38.26Q51,34.87,49.82,34.58c-.58-.14-1.14.2-1.67,1a2,2,0,0,1-2.27.86,14.51,14.51,0,0,1-2.33-1A5.7,5.7,0,0,0,42,37.19a2.18,2.18,0,0,0,.55,1.62A2.56,2.56,0,0,0,43.89,40a5,5,0,0,0,1.09.09,4.68,4.68,0,0,1,.92,0c.45.1.47,1,.08,2.6a37.29,37.29,0,0,1-2.79,6.89q-.09-5.86-1.66-6.24a2.71,2.71,0,0,0-1,.11,2.78,2.78,0,0,1-1.08.09c-1-.26-1.76-1.44-2.13-3.55-1.72-.14-2.76.5-3.1,1.95a2,2,0,0,0,.59,2c.56.6.82,1,.78,1.16-.24,1-2,2.14-5.36,3.48-1.78.72-3,1.22-3.69,1.52a15.33,15.33,0,0,0,2.13-2.18,7.43,7.43,0,0,0,1.53-2.56c.08-.36-.21-1-.88-1.82a2.75,2.75,0,0,1-.76-2.35,5.69,5.69,0,0,1,1.2-2.12,2.23,2.23,0,0,0-1.49-1.22c-1.44-.34-2.28-.05-2.5.89.15-.65,0-.16-.35,1.47-.25,1.2-1.3,1.58-3.14,1.14a43.66,43.66,0,0,1-6.86-2.68c4,0,6.11-.67,6.41-1.9A5.67,5.67,0,0,1,22,35.42c.13-1.16,1.16-2,3.11-2.47.07-1.73-.59-2.77-2-3.11-.22-.05-.71.23-1.46.85a2.38,2.38,0,0,1-1.9.75q-1.31-.3-2.69-3.62-.63-1.63-2-4.88l2.18,1.89a6.63,6.63,0,0,0,2.42,1.38c.51.12,1.11-.2,1.81-1a2.2,2.2,0,0,1,2.24-.86,20.19,20.19,0,0,1,2,1.16,5.17,5.17,0,0,0,1.59-2.08,2.46,2.46,0,0,0-.43-1.68,2.22,2.22,0,0,0-1.24-1.18,3.5,3.5,0,0,0-.87,0,3.11,3.11,0,0,1-.88,0c-.65-.15-.78-1-.4-2.67.11-.43,1.12-2.81,3-7.12a9.57,9.57,0,0,0,0,3.2c.18,2,.68,3,1.51,3.23a3,3,0,0,0,.95-.12A2.65,2.65,0,0,1,30,17a2.44,2.44,0,0,1,1.72,1.9l.46,1.66a2.56,2.56,0,0,0,2.09-.36,2.82,2.82,0,0,0,1.23-1.77A2.06,2.06,0,0,0,35,16.34c-.57-.58-.83-1-.78-1.19q.27-1.14,4.5-3A26.6,26.6,0,0,1,43,10.51q-3.09,2.58-3.43,4a2.39,2.39,0,0,0,.53,1.85,5.68,5.68,0,0,1,1,1.77,5.23,5.23,0,0,1-.93,3.39,4.65,4.65,0,0,0,2,1.56,1.45,1.45,0,0,0,2-1.25c0-.11.06-.46.11-1.06a3.12,3.12,0,0,1,.15-1c.27-.48,1.32-.49,3.16-.05a55.17,55.17,0,0,1,7,2.7l-3.8.12c-1.55.09-2.39.4-2.52.94a5.37,5.37,0,0,0,0,1.37,5.67,5.67,0,0,1-.06,1.42c-.12.5-.55.89-1.31,1.17l-2.15.86A8.69,8.69,0,0,0,45.14,30a1.86,1.86,0,0,0,1.3,1c.44.1.93-.18,1.47-.85a1.87,1.87,0,0,1,2-.73c1,.24,1.86,1.4,2.65,3.5C53,34.07,53.71,35.86,54.67,38.26Zm-11.28-6a8.43,8.43,0,0,0-1.11-6.62,8.49,8.49,0,0,0-5.4-4,9,9,0,0,0-10.72,6.49,8,8,0,0,0,1.14,6.6,8.76,8.76,0,0,0,5.5,4,8.64,8.64,0,0,0,6.72-.94A8.19,8.19,0,0,0,43.39,32.24Zm-.81-.19A7.53,7.53,0,0,1,39.05,37a7.81,7.81,0,0,1-6,.84,7.76,7.76,0,0,1-4.94-3.53,7.73,7.73,0,0,1,2.62-10.8,7.91,7.91,0,0,1,10.88,2.63A7.54,7.54,0,0,1,42.58,32.05Z"/></svg>