<svg id="Layer_1" data-name="Layer 1" xmlns="http://www.w3.org/2000/svg" viewBox="0 0 100 100"><defs><style>.cls-1{fill:#d0cac3;}.cls-2{fill:#04070e;}</style></defs><path class="cls-1" d="M100,50A50,50,0,1,1,50,0,50,50,0,0,1,100,50Z"/><path class="cls-2" d="M56.64,80V76.7c4.7-.52,7.06-1.88,7.06-4.08a7.64,7.64,0,0,0-1.88-4.74l-13-16L38.54,64c-2.58,3-3.87,5.43-3.87,7.35q0,4.47,7.07,5.39V80h-25V76.71a19.54,19.54,0,0,0,8.1-3.41,53.38,53.38,0,0,0,6.29-6.44L46.53,49,28.66,27.29a31.38,31.38,0,0,0-5.4-5.51,15.28,15.28,0,0,0-7.21-2.37V16H45.59v3.29q-6.68,1.3-6.67,4.07a6.7,6.7,0,0,0,1.79,4.07L52.53,41.75,62,30.06q2.57-3.15,2.57-5.52c0-2.63-2.11-4.34-6.31-5.13V16H81.82v3.29a22.12,22.12,0,0,0-4.23,1.19q-3.86,1.85-11.8,10.92Q64.51,32.85,55,44.68L74,68.05c4.11,5.07,8.3,8,12.58,8.66V80Z"/></svg>