<svg id="Layer_1" data-name="Layer 1" xmlns="http://www.w3.org/2000/svg" viewBox="0 0 100 100"><defs><style>.cls-1{fill:#cfc9c2;}.cls-2{fill:#04070e;}</style></defs><path class="cls-1" d="M100,50A50,50,0,1,1,50,0,50,50,0,0,1,100,50Z"/><path class="cls-2" d="M54.91,65.7c0,4,.65,6.79,2,8.41s3.52,2.43,6.64,2.43l.75-.09V80H35.46V76.45h.94c3.11.06,5.33-.72,6.64-2.34s2-4.39,2-8.32V53.26L26.67,26.43c-.74-1-1.4-1.87-2-2.62A11.68,11.68,0,0,0,23.12,22a7.46,7.46,0,0,0-2.57-1.45,21.81,21.81,0,0,0-3.51-.7V16.24H45v3.55A16.89,16.89,0,0,0,39.3,21a3,3,0,0,0-1.5,2.94,5,5,0,0,0,.37,1.87,12.5,12.5,0,0,0,1,2L53.41,48.3,63.79,33.06a19.8,19.8,0,0,0,2.15-3.55,10.49,10.49,0,0,0,.84-2.8V26a5.43,5.43,0,0,0-1.59-4.3q-1.59-1.41-5.51-1.78V16.24H82.77v3.55a12.93,12.93,0,0,0-2.06.51,8.16,8.16,0,0,0-1.77.89,12.08,12.08,0,0,0-3.09,2.67A57.56,57.56,0,0,0,72,29L54.91,53.26Z"/></svg>