<svg id="Layer_1" data-name="Layer 1" xmlns="http://www.w3.org/2000/svg" viewBox="0 0 100 100"><defs><style>.cls-1{fill:#cfc9c2;}.cls-2{fill:#04070e;}</style></defs><path class="cls-1" d="M100,50A50,50,0,1,1,50,0,50,50,0,0,1,100,50Z"/><path class="cls-2" d="M74.36,80H20.6V77.29L63.23,20.07h-19a24.13,24.13,0,0,0-7.2,1,11,11,0,0,0-4.67,3.41,2.8,2.8,0,0,0-.33.38,2.75,2.75,0,0,1-.33.37c-.25.38-.48.7-.7,1a9.31,9.31,0,0,0-.61.89,2,2,0,0,1-.28.56l-.37.56a11,11,0,0,1-.47,1.17c-.19.41-.41.89-.65,1.45l-3.37-.09V16.24H76.32v2.52l-43,57.41H51.92A51.87,51.87,0,0,0,58.6,76a16,16,0,0,0,4.63-1.22l.51-.18.42-.19a19.57,19.57,0,0,0,2.53-1.5,22,22,0,0,0,2.43-2c.56-.56,1.12-1.17,1.68-1.82s1.16-1.39,1.78-2.2L75,63.45h3.55Z"/></svg>